<svg xmlns="http://www.w3.org/2000/svg" xmlns:xlink="http://www.w3.org/1999/xlink" width="500" zoomAndPan="magnify" viewBox="0 0 375 374.999991" height="500" preserveAspectRatio="xMidYMid meet" version="1.0"><defs><clipPath id="94fff7de4b"><path d="M 22.527344 22.527344 L 352.472656 22.527344 L 352.472656 352.472656 L 22.527344 352.472656 Z M 22.527344 22.527344 " clip-rule="nonzero"/></clipPath><clipPath id="0cf3c378bc"><path d="M 187.5 22.527344 C 96.386719 22.527344 22.527344 96.386719 22.527344 187.5 C 22.527344 278.613281 96.386719 352.472656 187.5 352.472656 C 278.613281 352.472656 352.472656 278.613281 352.472656 187.5 C 352.472656 96.386719 278.613281 22.527344 187.5 22.527344 Z M 187.5 22.527344 " clip-rule="nonzero"/></clipPath><clipPath id="dedb73f193"><path d="M 178 339 L 207 339 L 207 344.527344 L 178 344.527344 Z M 178 339 " clip-rule="nonzero"/></clipPath><clipPath id="7c1ac9630b"><path d="M 198 340 L 217 340 L 217 344.527344 L 198 344.527344 Z M 198 340 " clip-rule="nonzero"/></clipPath><clipPath id="84ef231b8d"><path d="M 192 344 L 199 344 L 199 344.527344 L 192 344.527344 Z M 192 344 " clip-rule="nonzero"/></clipPath><clipPath id="9b95c1a3cc"><path d="M 203 344 L 206 344 L 206 344.527344 L 203 344.527344 Z M 203 344 " clip-rule="nonzero"/></clipPath><clipPath id="dfc9bb6d5f"><path d="M 205 344 L 206 344 L 206 344.527344 L 205 344.527344 Z M 205 344 " clip-rule="nonzero"/></clipPath><clipPath id="4980da0aa4"><path d="M 206 339 L 227 339 L 227 344.527344 L 206 344.527344 Z M 206 339 " clip-rule="nonzero"/></clipPath><clipPath id="c7f6147670"><path d="M 179 47.527344 L 330 47.527344 L 330 160 L 179 160 Z M 179 47.527344 " clip-rule="nonzero"/></clipPath><clipPath id="97a16496d5"><path d="M 347 193 L 351.625 193 L 351.625 204 L 347 204 Z M 347 193 " clip-rule="nonzero"/></clipPath><clipPath id="589ae2b293"><path d="M 351 193 L 351.625 193 L 351.625 194 L 351 194 Z M 351 193 " clip-rule="nonzero"/></clipPath><clipPath id="2173473cf1"><path d="M 47.125 108 L 351.625 108 L 351.625 305 L 47.125 305 Z M 47.125 108 " clip-rule="nonzero"/></clipPath></defs><rect x="-37.5" width="450" fill="#ffffff" y="-37.499999" height="449.999989" fill-opacity="1"/><rect x="-37.5" width="450" fill="#ffffff" y="-37.499999" height="449.999989" fill-opacity="1"/><g clip-path="url(#94fff7de4b)"><g clip-path="url(#0cf3c378bc)"><path fill="#000000" d="M 22.527344 22.527344 L 352.472656 22.527344 L 352.472656 352.472656 L 22.527344 352.472656 Z M 22.527344 22.527344 " fill-opacity="1" fill-rule="nonzero"/></g></g><path fill="#ffffff" d="M 143.433594 172.976562 L 143.195312 173.511719 C 140.339844 179.101562 137.902344 184.09375 135.289062 189.742188 C 135.585938 189.921875 136.238281 190.21875 136.238281 190.277344 C 138.972656 184.332031 141.351562 179.457031 144.324219 173.511719 Z M 143.433594 172.976562 " fill-opacity="1" fill-rule="nonzero"/><path fill="#ffffff" d="M 111.148438 259.480469 L 111.148438 259.363281 L 110.257812 258.886719 L 110.199219 259.007812 C 109.070312 264.058594 108.238281 267.984375 107.464844 272.621094 L 108.175781 272.976562 C 109.128906 268.398438 109.960938 264.476562 111.148438 259.480469 Z M 111.148438 259.480469 " fill-opacity="1" fill-rule="nonzero"/><path fill="#ffffff" d="M 106.632812 307.164062 L 106.570312 307.105469 L 106.632812 307.34375 C 106.75 307.878906 106.929688 309.066406 107.285156 310.550781 C 107.105469 309.898438 106.929688 308.949219 106.691406 307.640625 C 106.691406 307.460938 106.691406 307.34375 106.632812 307.164062 Z M 106.632812 307.164062 " fill-opacity="1" fill-rule="nonzero"/><path fill="#ffffff" d="M 118.34375 313.226562 L 118.046875 313.109375 L 118.046875 313.761719 C 118.105469 315.429688 118.226562 319.292969 119.292969 322.859375 C 118.878906 321.375 118.34375 318.816406 118.285156 314.535156 C 118.34375 314.121094 118.34375 313.585938 118.34375 313.226562 Z M 118.34375 313.226562 " fill-opacity="1" fill-rule="nonzero"/><path fill="#ffffff" d="M 195.277344 114.414062 L 194.980469 114.769531 C 192.066406 119.644531 189.332031 124.285156 186.359375 129.398438 L 186.835938 129.632812 C 189.925781 124.699219 192.601562 119.527344 195.515625 114.53125 Z M 195.277344 114.414062 " fill-opacity="1" fill-rule="nonzero"/><path fill="#ffffff" d="M 159.484375 181.242188 C 159.425781 181.417969 154.3125 192.417969 151.816406 198.066406 L 152.945312 198.601562 C 155.5625 192.535156 157.703125 187.839844 160.496094 181.714844 Z M 159.484375 181.242188 " fill-opacity="1" fill-rule="nonzero"/><path fill="#ffffff" d="M 127.203125 267.566406 L 126.191406 267.09375 L 126.011719 267.804688 C 125.359375 270.066406 124.171875 274.285156 122.742188 280.351562 L 123.636719 280.765625 C 124.882812 275.773438 126.191406 271.253906 127.082031 268.28125 Z M 127.203125 267.566406 " fill-opacity="1" fill-rule="nonzero"/><path fill="#ffffff" d="M 129.878906 319.648438 C 129.164062 323.8125 128.449219 328.925781 129.402344 331.125 C 128.746094 329.460938 128.984375 326.128906 130.054688 320.839844 C 130.175781 320.242188 130.351562 319.410156 130.53125 318.757812 L 130.054688 318.578125 Z M 129.878906 319.648438 " fill-opacity="1" fill-rule="nonzero"/><path fill="#ffffff" d="M 142.839844 274.761719 C 142.777344 275 139.035156 286 138.558594 287.542969 L 139.628906 287.960938 C 140.9375 284.035156 143.910156 275.414062 144.027344 275.238281 Z M 142.839844 274.761719 " fill-opacity="1" fill-rule="nonzero"/><path fill="#ffffff" d="M 208 120.359375 L 207.523438 120.121094 C 207.464844 120.242188 204.253906 126.898438 200.152344 135.578125 C 200.746094 135.816406 200.746094 135.816406 200.746094 135.816406 L 200.804688 135.878906 C 203.304688 130.46875 205.265625 126.246094 208 120.359375 Z M 208 120.359375 " fill-opacity="1" fill-rule="nonzero"/><path fill="#ffffff" d="M 176.3125 188.96875 C 176.25 189.148438 171.496094 200.324219 169.234375 205.914062 C 169.59375 206.09375 170.425781 206.449219 170.484375 206.449219 C 172.863281 200.5625 175.0625 195.390625 177.5 189.503906 Z M 176.3125 188.96875 " fill-opacity="1" fill-rule="nonzero"/><path fill="#ffffff" d="M 161.269531 282.191406 C 160.914062 282.074219 160.554688 281.894531 160.140625 281.777344 C 160.082031 281.894531 156.871094 289.863281 155.085938 294.144531 L 156.039062 294.5 C 157.464844 291.109375 159.902344 285.285156 160.851562 282.964844 Z M 161.269531 282.191406 " fill-opacity="1" fill-rule="nonzero"/><path fill="#ffffff" d="M 142.542969 323.691406 C 138.675781 332.195312 137.429688 334.15625 136.773438 334.570312 C 137.132812 334.453125 138.558594 333.265625 143.078125 323.929688 C 143.015625 323.871094 143.015625 323.871094 142.542969 323.691406 Z M 142.542969 323.691406 " fill-opacity="1" fill-rule="nonzero"/><path fill="#ffffff" d="M 193.789062 196.164062 C 193.730469 196.339844 187.546875 212.394531 187.191406 213.226562 C 187.546875 213.34375 188.378906 213.703125 188.441406 213.703125 C 190.402344 208.53125 192.246094 203.65625 194.921875 196.640625 Z M 193.789062 196.164062 " fill-opacity="1" fill-rule="nonzero"/><path fill="#ffffff" d="M 220.308594 125.414062 C 220.246094 125.53125 216.621094 135.402344 214.480469 141.347656 L 215.132812 141.585938 C 216.621094 137.421875 219.476562 129.515625 220.84375 125.589844 Z M 220.308594 125.414062 " fill-opacity="1" fill-rule="nonzero"/><path fill="#ffffff" d="M 179.105469 288.496094 L 177.796875 288.078125 L 177.621094 288.496094 C 175.65625 292.65625 173.875 296.402344 171.972656 300.148438 L 173.160156 300.5625 C 173.933594 299.078125 176.015625 295.09375 178.75 289.386719 Z M 179.105469 288.496094 " fill-opacity="1" fill-rule="nonzero"/><path fill="#ffffff" d="M 154.90625 328.6875 C 148.25 337.1875 144.980469 337.484375 143.195312 336.949219 C 143.195312 336.949219 143.253906 336.949219 143.253906 336.949219 L 143.492188 337.007812 C 144.800781 337.246094 148.25 337.84375 155.5625 328.863281 C 155.679688 328.746094 155.800781 328.566406 155.917969 328.390625 L 155.265625 328.210938 Z M 154.90625 328.6875 " fill-opacity="1" fill-rule="nonzero"/><g clip-path="url(#dedb73f193)"><path fill="#ffffff" d="M 206.097656 339.507812 C 206.097656 339.507812 206.039062 339.507812 206.039062 339.507812 C 205.5625 339.449219 205.5625 339.449219 203.480469 340.28125 C 193.078125 344.261719 184.8125 344.441406 178.867188 344.203125 L 179.285156 344.261719 L 181.484375 344.382812 C 187.074219 344.261719 194.027344 344.203125 204.136719 340.398438 C 204.671875 340.101562 205.503906 339.746094 206.097656 339.507812 Z M 206.097656 339.507812 " fill-opacity="1" fill-rule="nonzero"/></g><path fill="#ffffff" d="M 285.765625 140.691406 C 284.398438 126.839844 279.046875 91.464844 259.191406 62.152344 C 279.640625 92.476562 283.804688 128.742188 285.171875 140.632812 Z M 285.765625 140.691406 " fill-opacity="1" fill-rule="nonzero"/><g clip-path="url(#7c1ac9630b)"><path fill="#ffffff" d="M 215.253906 340.457031 C 208.476562 342.777344 202.828125 343.847656 198.429688 344.324219 C 203.066406 343.847656 208.773438 342.835938 215.730469 340.457031 C 216.027344 340.339844 216.382812 340.21875 216.679688 340.101562 L 216.621094 340.101562 C 216.203125 340.160156 216.203125 340.160156 215.253906 340.457031 Z M 215.253906 340.457031 " fill-opacity="1" fill-rule="nonzero"/></g><g clip-path="url(#84ef231b8d)"><path fill="#ffffff" d="M 198.429688 344.324219 C 196.109375 344.558594 194.085938 344.679688 192.304688 344.738281 C 193.910156 344.738281 195.929688 344.621094 198.429688 344.324219 Z M 198.429688 344.324219 " fill-opacity="1" fill-rule="nonzero"/></g><path fill="#ffffff" d="M 284.933594 89.503906 C 284.992188 89.621094 285.050781 89.742188 285.113281 89.859375 C 285.113281 89.800781 285.050781 89.800781 285.050781 89.742188 Z M 284.933594 89.503906 " fill-opacity="1" fill-rule="nonzero"/><g clip-path="url(#9b95c1a3cc)"><path fill="#ffffff" d="M 205.144531 344.324219 C 204.609375 344.382812 203.421875 344.441406 203.304688 344.5 C 203.71875 344.441406 204.375 344.382812 205.144531 344.324219 Z M 205.144531 344.324219 " fill-opacity="1" fill-rule="nonzero"/></g><g clip-path="url(#dfc9bb6d5f)"><path fill="#ffffff" d="M 205.144531 344.324219 C 205.207031 344.324219 205.265625 344.324219 205.324219 344.324219 C 205.265625 344.261719 205.207031 344.324219 205.144531 344.324219 Z M 205.144531 344.324219 " fill-opacity="1" fill-rule="nonzero"/></g><g clip-path="url(#4980da0aa4)"><path fill="#ffffff" d="M 226.132812 339.921875 C 225.835938 339.921875 225.835938 339.921875 225.597656 340.042969 C 217.632812 342.71875 210.734375 343.726562 206.574219 344.203125 C 210.675781 343.726562 217.632812 342.777344 226.132812 339.921875 Z M 226.132812 339.921875 " fill-opacity="1" fill-rule="nonzero"/></g><path fill="#ffffff" d="M 293.851562 95.152344 C 293.910156 95.269531 294.03125 95.390625 294.089844 95.566406 C 294.03125 95.507812 294.03125 95.449219 293.96875 95.390625 Z M 293.851562 95.152344 " fill-opacity="1" fill-rule="nonzero"/><path fill="#ffffff" d="M 229.820312 340.21875 C 227.5 340.875 224.351562 341.527344 222.03125 342.0625 C 222.210938 342.0625 223.816406 341.707031 223.816406 341.707031 C 226.3125 341.171875 228.691406 340.636719 232.316406 339.566406 C 232.972656 339.386719 233.863281 339.089844 234.515625 338.914062 C 234.515625 338.914062 234.515625 338.914062 234.457031 338.914062 C 234.21875 338.972656 234.21875 338.972656 229.820312 340.21875 Z M 229.820312 340.21875 " fill-opacity="1" fill-rule="nonzero"/><path fill="#ffffff" d="M 298.785156 287.78125 C 299.855469 286.058594 303.1875 280.765625 306.8125 273.394531 C 306.871094 273.273438 306.992188 273.039062 307.050781 272.917969 C 306.992188 272.917969 306.457031 273.039062 306.21875 273.097656 C 303.542969 278.625 301.164062 282.90625 298.011719 287.960938 C 298.25 287.839844 298.488281 287.839844 298.785156 287.78125 Z M 298.785156 287.78125 " fill-opacity="1" fill-rule="nonzero"/><path fill="#ffffff" d="M 310.617188 113.464844 C 310.617188 113.523438 310.675781 113.582031 310.675781 113.582031 C 310.675781 113.582031 310.675781 113.582031 310.675781 113.523438 Z M 310.617188 113.464844 " fill-opacity="1" fill-rule="nonzero"/><path fill="#ffffff" d="M 250.808594 333.679688 C 247.953125 334.871094 245.632812 335.640625 244.683594 336 L 245.398438 335.761719 C 246.941406 335.226562 251.105469 333.738281 256.394531 331.242188 C 256.574219 331.183594 256.753906 331.0625 256.871094 331.003906 C 256.871094 331.003906 256.8125 331.003906 256.753906 331.0625 C 254.730469 331.777344 252.828125 332.847656 250.808594 333.679688 Z M 250.808594 333.679688 " fill-opacity="1" fill-rule="nonzero"/><path fill="#ffffff" d="M 304.671875 296.996094 L 304.613281 297.117188 C 300.75 301.398438 297.417969 304.726562 293.199219 308.472656 C 290.9375 309.839844 288.382812 310.96875 285.707031 311.921875 C 287.667969 310.550781 293.554688 304.605469 296.707031 301.039062 C 296.882812 300.863281 297.121094 300.5625 297.300781 300.386719 L 297.242188 300.386719 C 296.824219 300.503906 296.824219 300.503906 294.503906 303.121094 C 293.078125 304.726562 291.769531 306.035156 290.878906 306.867188 C 288.382812 309.363281 286.417969 311.148438 285.46875 312.039062 C 282.675781 312.992188 279.640625 313.761719 276.492188 314.417969 C 276.964844 314.179688 277.5625 313.644531 279.878906 311.386719 C 282.375 308.949219 284.816406 306.390625 287.132812 303.65625 C 287.3125 303.476562 287.550781 303.179688 287.726562 302.941406 L 287.667969 302.941406 C 287.429688 303.003906 287.253906 302.882812 287.015625 303.0625 C 285.171875 304.964844 283.507812 307.042969 281.664062 309.007812 C 279.878906 310.910156 278.035156 312.691406 276.074219 314.476562 C 272.6875 315.070312 269.058594 315.488281 265.375 315.726562 C 265.90625 315.664062 266.207031 315.367188 268.464844 313.050781 C 271.019531 310.433594 273.519531 307.640625 275.957031 304.726562 C 276.074219 304.605469 276.195312 304.429688 276.253906 304.371094 C 276.253906 304.371094 275.71875 304.429688 275.480469 304.429688 C 271.972656 308.710938 268.941406 311.980469 265.074219 315.726562 C 261.269531 315.964844 257.347656 316.023438 253.421875 315.902344 C 254.671875 314.59375 258.476562 310.730469 262.933594 305.023438 L 263.234375 304.667969 C 263.171875 304.667969 262.519531 304.667969 262.222656 304.667969 C 258.894531 308.949219 256.097656 312.21875 252.472656 315.902344 C 248.191406 315.785156 243.851562 315.488281 239.511719 315.070312 C 240.699219 313.761719 244.148438 309.898438 248.308594 304.191406 L 248.605469 303.835938 C 248.546875 303.835938 247.773438 303.773438 247.417969 303.714844 C 244.328125 307.996094 241.710938 311.265625 238.441406 314.953125 C 233.625 314.476562 228.867188 313.824219 224.230469 313.050781 C 225.300781 311.742188 228.453125 307.878906 232.316406 302.167969 L 232.554688 301.8125 C 232.496094 301.8125 231.542969 301.632812 231.1875 301.574219 C 228.332031 305.855469 225.957031 309.125 222.984375 312.871094 C 220.425781 312.457031 217.871094 311.980469 215.433594 311.503906 C 212.816406 311.027344 210.257812 310.433594 207.644531 309.898438 C 208.652344 308.472656 211.328125 304.667969 214.71875 299.195312 C 214.835938 298.960938 215.074219 298.660156 215.195312 298.425781 C 214.71875 298.304688 214.183594 298.1875 213.707031 298.066406 L 213.46875 298.484375 C 211.03125 302.585938 208.773438 305.976562 206.277344 309.601562 C 201.042969 308.414062 195.753906 307.105469 190.460938 305.675781 C 191.351562 304.191406 193.730469 300.328125 196.761719 294.738281 L 197.179688 293.964844 L 195.8125 293.609375 L 195.574219 294.023438 C 193.375 298.1875 191.351562 301.695312 189.152344 305.378906 C 144.742188 293.191406 100.210938 272.027344 68.285156 247.589844 C 80.054688 256.867188 93.371094 265.546875 107.582031 273.335938 L 107.523438 273.75 C 106.808594 278.089844 106.394531 281.777344 106.035156 285.699219 C 94.441406 279.457031 83.5625 272.800781 73.8125 265.785156 C 87.664062 276.070312 103.480469 285.402344 120.066406 293.550781 L 119.949219 294.203125 C 119.175781 298.78125 118.761719 301.933594 118.582031 303.773438 C 114.300781 301.753906 110.078125 299.613281 105.976562 297.414062 C 105.976562 295.925781 105.976562 292.480469 106.453125 286.832031 C 106.453125 286.710938 106.453125 286.59375 106.511719 286.472656 L 105.976562 286.175781 L 105.976562 286.535156 C 105.796875 288.851562 105.621094 292.539062 105.738281 297.234375 C 99.914062 294.144531 94.265625 290.875 88.796875 287.484375 C 98.25 293.550781 108.238281 299.136719 118.582031 304.191406 L 118.523438 304.488281 C 118.226562 307.640625 118.105469 310.253906 118.164062 312.929688 C 114.300781 311.085938 110.496094 309.183594 106.75 307.164062 C 106.632812 305.675781 106.394531 304.191406 106.273438 302.644531 C 106.214844 301.933594 106.097656 300.386719 106.097656 298.484375 C 106.097656 298.246094 106.097656 297.949219 106.097656 297.710938 C 105.976562 297.652344 105.917969 297.589844 105.796875 297.53125 L 105.796875 297.949219 C 105.917969 300.265625 106.097656 303.417969 106.75 307.164062 C 105.382812 306.449219 104.015625 305.738281 102.648438 304.964844 C 119.117188 314.296875 136.359375 321.96875 155.324219 328.328125 L 156.097656 328.566406 C 160.257812 329.933594 164.300781 331.183594 168.285156 332.3125 C 167.929688 332.609375 167.511719 332.96875 167.214844 333.265625 C 158.773438 340.28125 154.074219 339.921875 150.390625 339.210938 L 150.566406 339.269531 L 152.054688 339.566406 C 154.550781 339.746094 159.722656 340.042969 167.929688 333.5 C 168.285156 333.203125 168.699219 332.847656 169.058594 332.609375 C 173.398438 333.859375 177.679688 334.929688 181.839844 335.703125 C 181.246094 335.582031 180.949219 335.761719 178.867188 337.070312 C 170.722656 341.410156 165.492188 342.421875 158.238281 341.171875 L 158.59375 341.230469 L 160.675781 341.585938 C 164.894531 341.824219 170.664062 342.183594 179.640625 337.1875 C 180.414062 336.773438 181.363281 336.175781 182.136719 335.703125 C 186.359375 336.652344 190.519531 337.425781 194.5625 338.078125 C 194.027344 338.019531 193.910156 338.019531 190.996094 339.328125 C 180.652344 343.964844 172.683594 343.3125 167.929688 342.894531 L 168.402344 342.957031 L 172.445312 343.3125 C 176.015625 343.3125 182.613281 343.3125 191.710938 339.449219 C 192.601562 339.089844 193.789062 338.496094 194.683594 338.078125 C 202.410156 339.328125 209.785156 340.042969 216.859375 340.21875 L 216.917969 340.21875 C 228.988281 340.398438 235.527344 338.972656 240.34375 337.542969 L 240.878906 337.367188 C 239.214844 337.902344 237.25 338.378906 234.933594 338.792969 C 235.644531 338.613281 241.414062 336.832031 248.488281 333.441406 C 248.726562 333.324219 248.964844 333.203125 249.203125 333.085938 C 249.203125 333.085938 249.140625 333.085938 249.140625 333.085938 C 248.785156 333.144531 248.785156 333.144531 247.359375 333.859375 C 244.683594 335.105469 240.34375 337.007812 234.875 338.792969 C 232.613281 339.210938 229.996094 339.507812 227.023438 339.683594 C 228.691406 339.210938 234.039062 337.246094 239.449219 334.511719 C 239.570312 334.453125 239.75 334.394531 239.867188 334.273438 L 239.808594 334.273438 C 239.6875 334.273438 239.511719 334.214844 239.390625 334.273438 C 238.023438 334.871094 236.65625 335.640625 235.289062 336.238281 C 231.367188 338.019531 228.273438 339.089844 226.789062 339.625 C 224.050781 339.804688 221.019531 339.804688 217.632812 339.746094 C 219.890625 339.148438 225.835938 336.296875 228.867188 334.632812 C 228.988281 334.570312 229.105469 334.511719 229.226562 334.453125 C 241.890625 334.632812 252.710938 333.085938 260.796875 329.398438 L 261.332031 329.160156 C 260.199219 329.695312 258.890625 330.230469 257.464844 330.707031 C 258.59375 330.230469 264.125 327.554688 270.664062 323.335938 C 270.902344 323.15625 271.257812 322.917969 271.554688 322.742188 C 271.554688 322.742188 271.496094 322.742188 271.496094 322.742188 C 271.378906 322.800781 271.320312 322.800781 271.199219 322.859375 C 268.582031 324.40625 266.027344 326.128906 263.410156 327.554688 C 261.449219 328.625 259.425781 329.695312 257.40625 330.648438 C 255.148438 331.421875 252.53125 332.074219 249.5 332.667969 C 250.6875 332.3125 257.050781 328.925781 262.578125 325.238281 C 262.699219 325.179688 262.875 325.058594 262.996094 324.941406 L 262.933594 324.941406 C 262.875 324.941406 262.816406 324.941406 262.699219 324.941406 C 269.296875 323.691406 274.945312 321.671875 279.464844 318.875 L 280.117188 318.460938 C 279.9375 318.578125 279.761719 318.636719 279.582031 318.757812 C 281.484375 317.566406 286.417969 314.179688 292.066406 309.363281 C 292.1875 309.246094 292.363281 309.125 292.484375 309.007812 L 292.425781 309.007812 C 292.363281 309.066406 292.246094 309.066406 292.1875 309.125 C 290.226562 310.730469 288.261719 312.394531 286.242188 313.941406 C 283.269531 316.199219 280.832031 317.867188 279.34375 318.875 C 277.203125 320.125 274.828125 321.195312 272.328125 322.085938 C 274.054688 321.074219 279.34375 317.332031 284.636719 312.753906 C 284.753906 312.632812 284.933594 312.515625 285.050781 312.394531 C 285.050781 312.394531 284.992188 312.394531 284.992188 312.394531 C 284.875 312.457031 284.753906 312.457031 284.636719 312.515625 C 282.734375 314 280.949219 315.664062 278.988281 317.152344 C 275.894531 319.53125 273.457031 321.253906 272.089844 322.144531 C 269.414062 323.097656 266.503906 323.8125 263.53125 324.347656 C 265.789062 323.335938 273.222656 317.152344 275.539062 315.070312 L 275.894531 314.714844 C 275.894531 314.714844 275.835938 314.714844 275.835938 314.714844 C 275.660156 314.773438 275.421875 314.714844 275.300781 314.832031 C 273.992188 315.84375 272.804688 317.035156 271.554688 318.101562 C 267.75 321.253906 264.71875 323.394531 263.292969 324.347656 C 260.140625 324.941406 256.8125 325.296875 253.421875 325.535156 C 253.898438 325.417969 254.433594 325 257.226562 322.800781 C 259.84375 320.777344 262.28125 318.636719 264.71875 316.378906 C 264.839844 316.261719 264.957031 316.140625 265.074219 316.023438 L 265.015625 316.023438 C 264.839844 316.023438 264.601562 315.902344 264.421875 316.082031 C 263.171875 317.09375 262.101562 318.222656 260.914062 319.292969 C 257.289062 322.445312 254.375 324.582031 253.125 325.535156 C 249.441406 325.773438 245.695312 325.832031 241.828125 325.714844 C 242.246094 325.652344 242.601562 325.355469 244.027344 324.226562 C 247 321.789062 249.675781 319.410156 252.351562 316.734375 C 252.472656 316.617188 252.589844 316.5 252.710938 316.378906 C 252.648438 316.378906 252.054688 316.378906 251.757812 316.378906 C 247.238281 320.898438 243.792969 323.75 241.292969 325.773438 C 237.25 325.652344 233.148438 325.355469 229.105469 325 C 230.472656 323.871094 233.921875 320.839844 238.320312 316.082031 C 238.441406 315.964844 238.617188 315.726562 238.738281 315.605469 C 238.679688 315.605469 237.964844 315.546875 237.609375 315.488281 C 235.410156 317.867188 232.375 321.074219 228.035156 324.882812 C 223.515625 324.40625 219 323.8125 214.71875 323.097656 C 215.847656 322.027344 219.117188 318.816406 223.160156 313.941406 L 223.457031 313.644531 C 223.398438 313.644531 222.566406 313.527344 222.148438 313.464844 C 219.175781 317.09375 216.679688 319.886719 213.53125 322.917969 C 211.089844 322.503906 208.714844 322.085938 206.453125 321.671875 C 204.015625 321.195312 201.578125 320.660156 199.140625 320.125 C 200.152344 318.9375 202.886719 315.785156 206.335938 311.148438 C 206.453125 310.96875 206.691406 310.671875 206.8125 310.492188 C 245.933594 319.054688 280.238281 318.816406 296.289062 306.152344 L 296.882812 305.675781 C 295.753906 306.570312 294.503906 307.402344 293.257812 308.175781 C 294.804688 306.925781 299.203125 303.0625 304.910156 296.640625 L 305.027344 296.523438 C 305.027344 296.523438 304.792969 296.640625 304.671875 296.699219 C 304.671875 296.996094 304.671875 296.996094 304.671875 296.996094 Z M 176.074219 325.238281 C 177.023438 324.167969 179.222656 321.671875 182.195312 317.6875 C 182.316406 317.566406 182.433594 317.390625 182.554688 317.210938 C 187.488281 318.578125 192.421875 319.828125 197.238281 320.898438 L 197.179688 320.957031 C 193.910156 324.703125 191.472656 327.019531 189.746094 328.625 C 185.230469 327.617188 180.652344 326.488281 176.074219 325.238281 Z M 135.527344 300.5625 C 140.339844 302.644531 145.15625 304.605469 150.03125 306.449219 C 149.972656 306.511719 147.296875 312.929688 146.167969 315.488281 C 141.648438 313.761719 137.132812 311.980469 132.730469 310.078125 C 133.089844 308.886719 133.921875 305.796875 135.347656 301.160156 Z M 150.628906 307.34375 L 150.863281 306.808594 C 155.800781 308.648438 160.734375 310.433594 165.609375 312.039062 L 165.492188 312.21875 C 163.765625 315.308594 162.160156 317.925781 160.554688 320.539062 C 155.976562 319.054688 151.398438 317.449219 146.820312 315.726562 C 148.488281 312.15625 150.03125 308.648438 150.628906 307.34375 Z M 166.324219 312.871094 L 166.621094 312.394531 C 171.554688 314 176.488281 315.546875 181.425781 316.914062 L 181.304688 317.09375 C 179.164062 320.066406 177.261719 322.503906 175.179688 325 C 170.605469 323.75 166.027344 322.382812 161.449219 320.898438 C 162.101562 319.828125 163.886719 317.09375 166.324219 312.871094 Z M 167.097656 311.5625 C 169.890625 306.6875 171.792969 303.0625 172.507812 301.632812 L 172.683594 301.277344 C 177.976562 303.003906 183.265625 304.605469 188.5 306.035156 L 188.203125 306.511719 C 187.25 307.996094 185.109375 311.5625 181.960938 315.964844 C 177.023438 314.65625 172.089844 313.167969 167.097656 311.5625 Z M 171.375 301.277344 C 168.582031 306.746094 166.859375 309.839844 166.085938 311.207031 C 161.089844 309.601562 156.15625 307.816406 151.222656 305.976562 C 152.765625 302.46875 155.679688 295.570312 155.800781 295.332031 C 161.03125 297.292969 166.324219 299.195312 171.554688 300.921875 Z M 150.390625 305.675781 C 145.453125 303.835938 140.578125 301.871094 135.761719 299.851562 C 136.179688 298.542969 137.367188 294.738281 139.152344 289.445312 L 139.390625 288.792969 C 144.503906 290.992188 149.675781 293.074219 154.847656 295.035156 C 154.789062 295.09375 151.339844 303.359375 150.390625 305.675781 Z M 134.929688 299.433594 C 130.175781 297.414062 125.417969 295.273438 120.78125 293.015625 C 121.078125 291.347656 121.851562 287.664062 123.21875 282.132812 L 123.398438 281.421875 C 128.332031 283.796875 133.324219 286.117188 138.320312 288.257812 C 138.320312 288.375 135.941406 295.988281 134.929688 299.433594 Z M 106.453125 285.820312 C 106.632812 284.09375 106.988281 280.113281 108 274.40625 C 108.058594 274.167969 108.117188 273.871094 108.117188 273.574219 C 112.8125 276.128906 117.628906 278.625 122.503906 281.003906 L 122.445312 281.300781 C 121.496094 285.402344 120.722656 289.03125 120.066406 292.714844 C 115.429688 290.515625 110.910156 288.199219 106.453125 285.820312 Z M 120.542969 294.382812 C 120.601562 294.203125 120.601562 293.90625 120.664062 293.726562 C 125.300781 295.988281 129.996094 298.125 134.695312 300.207031 L 134.632812 300.445312 C 133.625 303.894531 132.851562 306.867188 132.078125 309.78125 C 127.679688 307.878906 123.335938 305.914062 119.058594 303.894531 C 119.234375 302.230469 119.652344 299.136719 120.542969 294.382812 Z M 118.878906 304.964844 C 118.878906 304.785156 118.9375 304.488281 118.9375 304.308594 C 123.21875 306.390625 127.558594 308.414062 131.898438 310.316406 L 131.78125 310.730469 C 130.710938 315.128906 130.234375 317.390625 130.054688 318.28125 C 126.074219 316.617188 122.148438 314.832031 118.285156 312.929688 C 118.34375 311.800781 118.402344 309.183594 118.878906 304.964844 Z M 132.492188 311.027344 L 132.613281 310.613281 C 137.070312 312.515625 141.53125 314.359375 145.988281 316.082031 C 145.929688 316.140625 143.789062 321.074219 142.71875 323.394531 C 138.617188 321.847656 134.574219 320.242188 130.589844 318.578125 C 131.363281 315.191406 132.019531 312.753906 132.492188 311.027344 Z M 143.253906 323.511719 C 144.265625 321.433594 146.585938 316.4375 146.644531 316.261719 C 151.164062 317.984375 155.679688 319.589844 160.199219 321.074219 L 160.082031 321.253906 C 158.476562 323.75 157.046875 325.832031 155.5625 327.792969 L 155.441406 327.734375 C 151.28125 326.488281 147.238281 325.058594 143.253906 323.511719 Z M 160.734375 321.847656 C 160.792969 321.730469 160.914062 321.550781 161.03125 321.433594 C 165.609375 322.917969 170.128906 324.347656 174.644531 325.59375 L 174.527344 325.714844 C 172.445312 328.089844 170.605469 329.992188 168.582031 331.835938 C 163.886719 330.527344 159.78125 329.28125 156.214844 328.089844 C 156.808594 327.320312 158.414062 325.238281 160.734375 321.847656 Z M 169.296875 332.015625 C 170.1875 331.242188 172.328125 329.398438 175.179688 326.1875 C 175.300781 326.070312 175.417969 325.953125 175.539062 325.832031 C 180.117188 327.082031 184.632812 328.210938 189.035156 329.222656 L 188.914062 329.339844 C 186.359375 331.597656 184.101562 333.382812 181.542969 335.046875 C 177.144531 334.097656 173.042969 333.027344 169.296875 332.015625 Z M 182.433594 335.226562 C 183.566406 334.511719 186.179688 332.789062 189.6875 329.757812 C 189.808594 329.636719 189.925781 329.519531 190.105469 329.398438 C 194.5625 330.410156 198.964844 331.242188 203.242188 331.957031 C 200.09375 334.214844 197.476562 335.878906 194.324219 337.542969 C 192.421875 337.246094 190.460938 336.890625 188.441406 336.472656 C 186.417969 336.117188 184.398438 335.703125 182.433594 335.226562 Z M 196.824219 336.832031 C 199.199219 335.523438 201.636719 333.976562 204.015625 332.3125 C 204.074219 332.253906 204.136719 332.253906 204.195312 332.195312 C 208.355469 332.847656 212.460938 333.382812 216.441406 333.800781 C 215.3125 334.335938 214.300781 335.105469 213.230469 335.703125 C 209.84375 337.605469 207.226562 338.734375 206.097656 339.210938 C 202.707031 338.851562 199.023438 338.378906 195.097656 337.722656 C 195.21875 337.664062 195.929688 337.308594 196.824219 336.832031 Z M 217.394531 333.738281 L 217.15625 333.738281 Z M 224.886719 336.414062 C 221.378906 338.140625 218.640625 339.269531 217.214844 339.746094 C 213.945312 339.683594 210.378906 339.507812 206.453125 339.210938 C 206.988281 339.269531 207.40625 339.089844 210.082031 337.78125 C 211.625 337.007812 214.125 335.761719 217.035156 333.976562 C 217.097656 333.917969 217.214844 333.859375 217.273438 333.800781 C 221.140625 334.15625 224.945312 334.394531 228.511719 334.453125 C 227.324219 335.046875 226.132812 335.761719 224.886719 336.414062 Z M 252.175781 326.425781 C 250.867188 327.199219 249.675781 328.152344 248.429688 328.984375 C 244.503906 331.539062 241.414062 333.144531 240.105469 333.859375 C 241.292969 333.800781 248.546875 329.339844 252.414062 326.605469 C 252.53125 326.546875 252.648438 326.425781 252.769531 326.367188 C 256.277344 326.128906 259.546875 325.652344 262.699219 325.058594 C 262.636719 325.058594 262.578125 325.058594 262.460938 325.117188 C 261.09375 325.953125 259.726562 326.902344 258.359375 327.792969 C 254.195312 330.351562 250.867188 332.015625 249.441406 332.730469 C 244.148438 333.679688 237.609375 334.214844 229.402344 333.976562 C 230.117188 333.976562 230.175781 333.976562 233.148438 332.132812 C 234.875 331.0625 237.546875 329.339844 240.878906 326.84375 C 240.9375 326.785156 241.054688 326.722656 241.117188 326.664062 C 244.980469 326.722656 248.667969 326.664062 252.175781 326.425781 Z M 240.34375 326.664062 C 239.152344 327.4375 238.082031 328.328125 236.953125 329.160156 C 233.386719 331.660156 230.53125 333.324219 229.285156 334.035156 C 225.71875 333.917969 221.851562 333.679688 217.691406 333.265625 C 218.167969 333.265625 218.464844 333.027344 219.949219 332.074219 C 222.625 330.292969 225.300781 328.269531 227.917969 326.128906 C 227.976562 326.070312 228.035156 326.011719 228.09375 325.953125 C 232.375 326.367188 236.417969 326.605469 240.34375 326.664062 Z M 228.15625 325.832031 C 228.09375 325.832031 228.035156 325.832031 228.035156 325.832031 C 228.15625 325.832031 228.273438 325.832031 228.273438 325.832031 Z M 227.203125 325.832031 C 223.753906 328.746094 220.902344 330.886719 217.335938 333.203125 C 213.53125 332.789062 209.425781 332.253906 205.085938 331.539062 C 206.394531 330.589844 209.722656 328.152344 213.886719 324.167969 L 213.945312 324.109375 C 218.464844 324.820312 222.921875 325.417969 227.203125 325.832031 Z M 212.757812 323.929688 C 208.953125 327.554688 206.214844 329.757812 204.015625 331.421875 C 201.875 331.0625 199.734375 330.707031 197.476562 330.230469 C 195.21875 329.816406 193.019531 329.339844 190.757812 328.804688 C 191.828125 327.855469 194.742188 325.238281 198.367188 321.195312 L 198.429688 321.136719 C 203.304688 322.265625 208.058594 323.15625 212.757812 323.929688 Z M 205.265625 310.730469 C 202.769531 314.238281 200.507812 317.09375 197.953125 320.066406 C 193.078125 318.9375 188.082031 317.746094 183.148438 316.378906 C 184.039062 315.128906 186.359375 311.980469 189.511719 306.925781 L 189.808594 306.449219 C 195.097656 307.878906 200.390625 309.246094 205.5625 310.375 Z M 205.265625 310.730469 " fill-opacity="1" fill-rule="nonzero"/><path fill="#ffffff" d="M 273.28125 322.800781 C 273.636719 322.621094 275.125 321.730469 275.125 321.730469 C 275.660156 321.433594 276.667969 320.777344 278.035156 319.945312 C 278.15625 319.886719 278.335938 319.769531 278.453125 319.648438 C 276.667969 320.660156 275.003906 321.789062 273.28125 322.800781 Z M 273.28125 322.800781 " fill-opacity="1" fill-rule="nonzero"/><g clip-path="url(#c7f6147670)"><path fill="#ffffff" d="M 306.21875 142.179688 C 307.347656 148.125 308.714844 153.949219 309.667969 159.957031 C 309.785156 159.957031 309.964844 159.957031 310.082031 159.957031 C 310.023438 159.183594 308.953125 151.871094 306.574219 142.179688 C 309.25 142 312.042969 141.644531 314.777344 141.109375 C 314.839844 141.347656 314.898438 141.703125 315.015625 142 C 317.394531 150.144531 318.703125 156.566406 319.238281 158.945312 C 319.355469 158.945312 319.476562 158.886719 319.59375 158.886719 C 319.417969 157.875 318.050781 150.679688 315.078125 141.050781 C 317.453125 140.574219 319.832031 139.921875 322.09375 139.085938 C 322.09375 139.085938 322.152344 139.085938 322.152344 139.027344 C 324.886719 138.015625 327.441406 136.710938 329.703125 134.984375 C 329.109375 135.402344 328.453125 135.757812 327.800781 136.113281 C 327.679688 135.816406 326.550781 133.023438 324.765625 129.160156 C 326.253906 132.371094 327.207031 134.808594 327.742188 136.113281 C 326.015625 137.066406 324.113281 137.898438 321.972656 138.550781 C 320.308594 133.914062 316.683594 124.460938 310.738281 113.523438 C 316.859375 124.9375 320.070312 133.796875 321.855469 138.550781 C 319.714844 139.207031 317.335938 139.800781 314.839844 140.21875 C 311.507812 129.398438 305.265625 112.808594 294.207031 95.390625 C 306.515625 114.949219 311.746094 131.417969 314.601562 140.21875 C 312.042969 140.632812 309.308594 140.929688 306.394531 141.109375 C 306.277344 140.453125 300.925781 115.722656 285.230469 89.679688 C 294.386719 105.078125 301.34375 122.203125 305.921875 140.691406 C 305.980469 140.8125 306.039062 140.988281 306.097656 141.167969 C 303.1875 141.347656 300.152344 141.347656 296.882812 141.289062 C 296.882812 141.289062 296.824219 141.289062 296.707031 141.289062 C 296.527344 139.980469 291.652344 108.230469 272.984375 77.730469 C 284.160156 96.042969 291.769531 116.851562 296.289062 141.289062 C 291.117188 141.109375 284.101562 140.691406 273.992188 139.027344 C 273.28125 115.542969 269.355469 93.546875 262.519531 75.351562 C 255.445312 56.804688 247.179688 47.527344 247.121094 47.527344 C 262.816406 67.265625 271.554688 98.0625 273.101562 138.96875 C 271.199219 138.671875 269.238281 138.316406 267.15625 137.898438 C 265.015625 137.480469 262.933594 137.066406 260.914062 136.589844 C 261.6875 123.988281 263.054688 83.5 250.867188 55.140625 C 258.953125 73.984375 262.042969 101.273438 260.140625 136.472656 C 255.5625 135.460938 251.402344 134.390625 247.597656 133.378906 C 247.714844 132.84375 254.613281 91.226562 250.035156 60.429688 C 252.648438 78.5625 251.640625 102.40625 246.941406 133.203125 C 242.125 131.894531 237.90625 130.585938 234.277344 129.398438 C 234.8125 127.730469 242.125 98.898438 245.515625 72.558594 C 242.722656 93.070312 237.429688 114.710938 233.683594 129.21875 C 233.625 129.21875 233.566406 129.160156 233.566406 129.160156 C 229.164062 127.730469 225.003906 126.246094 221.078125 124.820312 C 221.613281 123.925781 231.1875 96.160156 236.476562 80.289062 C 232.375 92.117188 229.285156 100.800781 220.664062 124.460938 C 220.722656 124.582031 220.84375 124.699219 220.960938 124.757812 C 216.382812 123.035156 212.101562 121.371094 208.179688 119.707031 C 222.386719 90.394531 222.386719 90.394531 226.609375 82.128906 C 218.046875 98.300781 210.554688 113.699219 207.703125 119.527344 C 203.242188 117.625 199.199219 115.839844 195.574219 114.117188 C 204.492188 99.550781 204.492188 99.492188 208.296875 93.605469 C 202.769531 101.871094 198.488281 108.824219 195.335938 114 C 190.699219 111.796875 186.773438 109.835938 183.566406 108.171875 C 184.933594 106.328125 186.300781 104.425781 187.667969 102.582031 C 186.300781 104.367188 184.933594 106.210938 183.503906 108.113281 C 182.019531 107.339844 180.710938 106.683594 179.582031 106.089844 C 196.585938 115.839844 213.589844 123.453125 233.269531 130.109375 L 233.386719 130.167969 C 233.328125 130.289062 230.53125 141.050781 228.988281 146.460938 C 229.226562 146.519531 229.761719 146.699219 229.820312 146.757812 C 231.367188 140.929688 232.671875 135.996094 234.039062 130.40625 C 233.921875 130.347656 233.625 130.289062 233.503906 130.230469 L 234.039062 130.40625 C 257.523438 138.078125 278.097656 142 296.765625 142.476562 L 296.882812 142.476562 C 299.738281 142.476562 302.886719 142.417969 306.21875 142.179688 Z M 306.21875 142.179688 " fill-opacity="1" fill-rule="nonzero"/></g><path fill="#ffffff" d="M 340.34375 148.777344 C 340.285156 148.898438 340.167969 148.957031 340.105469 149.074219 C 340.167969 149.195312 340.285156 148.898438 340.34375 148.777344 Z M 340.34375 148.777344 " fill-opacity="1" fill-rule="nonzero"/><path fill="#ffffff" d="M 347.953125 160.550781 C 347.894531 160.90625 347.777344 161.203125 347.65625 161.5625 C 347.65625 161.5 347.714844 161.382812 347.777344 161.324219 C 347.835938 161.5625 347.894531 160.789062 347.953125 160.550781 Z M 347.953125 160.550781 " fill-opacity="1" fill-rule="nonzero"/><g clip-path="url(#97a16496d5)"><path fill="#ffffff" d="M 351.402344 193.785156 C 350.808594 197.589844 349.5 200.980469 347.480469 203.890625 C 349.738281 200.980469 351.105469 197.589844 351.402344 193.785156 Z M 351.402344 193.785156 " fill-opacity="1" fill-rule="nonzero"/></g><g clip-path="url(#589ae2b293)"><path fill="#ffffff" d="M 351.402344 193.785156 C 351.402344 193.726562 351.402344 193.726562 351.402344 193.667969 L 351.402344 193.429688 C 351.460938 193.546875 351.460938 193.667969 351.402344 193.785156 Z M 351.402344 193.785156 " fill-opacity="1" fill-rule="nonzero"/></g><g clip-path="url(#2173473cf1)"><path fill="#ffffff" d="M 340.226562 210.136719 L 340.226562 210.074219 C 340.582031 203.890625 340.640625 198.78125 340.34375 192.535156 C 346.648438 188.613281 350.511719 183.023438 351.105469 175.832031 C 349.382812 191.464844 330.714844 199.375 300.214844 198.601562 C 300.570312 192.535156 300.75 187.007812 300.628906 180.824219 C 304.554688 180.882812 308.300781 180.824219 311.867188 180.585938 C 311.804688 186.53125 312.164062 192.535156 311.984375 198.480469 C 312.164062 198.480469 312.402344 198.480469 312.578125 198.421875 C 312.757812 197.292969 312.875 189.386719 312.402344 180.527344 C 315.910156 180.289062 319.179688 179.8125 322.269531 179.277344 C 322.449219 185.285156 323.042969 191.230469 323.042969 197.234375 C 323.222656 197.175781 323.398438 197.175781 323.636719 197.113281 C 323.757812 196.164062 323.699219 188.792969 322.746094 179.160156 C 325.71875 178.566406 328.511719 177.792969 331.070312 176.898438 C 332.378906 192.535156 332.378906 192.535156 332.4375 194.914062 C 332.554688 194.855469 332.734375 194.796875 332.851562 194.796875 C 332.914062 194.203125 332.792969 187.125 331.425781 176.78125 C 333.921875 175.832031 336.183594 174.761719 338.203125 173.511719 C 339.75 185.757812 339.75 185.820312 340.105469 191.585938 C 340.226562 191.527344 340.285156 191.464844 340.402344 191.40625 C 340.402344 191.347656 340.226562 184.214844 338.441406 173.332031 C 343.140625 170.359375 346.347656 166.4375 347.835938 161.5625 C 346.289062 166.019531 343.019531 169.648438 338.261719 172.441406 C 338.203125 171.90625 337.195312 165.007812 334.222656 154.484375 L 334.160156 154.546875 C 335.410156 160.550781 337.074219 166.496094 338.085938 172.558594 C 329.820312 177.316406 317.039062 179.574219 300.75 179.160156 C 300.628906 173.035156 300.273438 167.386719 299.679688 161.382812 C 303.304688 161.441406 306.753906 161.324219 310.082031 161.085938 C 310.617188 167.03125 311.507812 172.976562 311.867188 178.980469 C 312.042969 178.980469 312.339844 178.980469 312.339844 178.921875 C 312.402344 177.910156 311.867188 170.183594 310.5 161.027344 C 313.710938 160.789062 316.742188 160.371094 319.59375 159.835938 C 320.425781 165.84375 321.558594 171.789062 322.210938 177.792969 C 322.390625 177.792969 322.507812 177.734375 322.6875 177.734375 C 322.6875 176.960938 321.972656 169.648438 320.011719 159.777344 C 322.804688 159.242188 325.363281 158.527344 327.679688 157.636719 C 327.679688 157.695312 327.679688 157.757812 327.679688 157.816406 C 329.761719 166.496094 330.652344 172.917969 331.011719 175.710938 C 331.128906 175.652344 331.25 175.652344 331.308594 175.59375 C 330.714844 170.003906 328.15625 158.171875 327.859375 157.578125 C 333.269531 155.554688 337.492188 152.761719 340.285156 149.074219 C 338.5625 151.039062 336.480469 152.644531 334.101562 154.011719 C 333.863281 153.117188 331.84375 145.867188 327.976562 136.292969 C 332.851562 150.085938 332.914062 150.207031 333.984375 154.070312 C 332.082031 155.140625 329.941406 156.089844 327.679688 156.863281 C 327.679688 156.746094 326.074219 149.550781 322.269531 139.027344 C 322.269531 139.027344 322.210938 139.027344 322.152344 139.085938 C 323.875 145.03125 325.898438 150.917969 327.382812 156.921875 C 319.355469 159.597656 309.429688 160.3125 299.5 160.074219 C 298.84375 153.890625 298.074219 148.480469 297.003906 142.417969 C 297.003906 142.417969 296.707031 142.417969 296.527344 142.417969 C 297.179688 148.304688 298.25 154.128906 298.84375 160.015625 C 295.039062 159.898438 291.175781 159.597656 287.429688 159.242188 C 287.132812 153.117188 286.71875 147.707031 286.0625 141.761719 L 285.410156 141.703125 C 286.003906 147.828125 286.359375 152.882812 286.597656 159.183594 C 282.257812 158.707031 278.035156 158.171875 274.171875 157.519531 C 274.292969 151.574219 274.292969 146.042969 274.113281 140.277344 L 273.28125 140.15625 C 273.398438 146.164062 273.398438 151.214844 273.160156 157.398438 C 270.84375 157.042969 268.644531 156.625 266.5625 156.210938 C 264.480469 155.792969 262.222656 155.320312 259.726562 154.785156 C 260.320312 148.660156 260.734375 143.726562 261.03125 137.78125 L 260.140625 137.601562 L 260.082031 138.136719 C 259.726562 143.726562 259.25 148.839844 258.59375 154.605469 C 254.433594 153.652344 249.796875 152.523438 244.800781 151.15625 C 245.871094 145.152344 246.703125 140.277344 247.597656 134.449219 L 246.824219 134.210938 L 246.765625 134.6875 C 245.871094 140.097656 244.980469 145.269531 243.910156 150.859375 C 224.824219 145.628906 200.09375 137.007812 173.578125 122.917969 C 176.964844 118.039062 180.234375 113.105469 183.683594 108.289062 L 183.625 108.230469 L 183.386719 108.527344 C 178.867188 114.652344 175.480469 119.585938 173.339844 122.738281 C 167.632812 119.707031 161.804688 116.375 155.917969 112.808594 C 169.710938 121.726562 184.632812 129.632812 199.855469 136.351562 C 199.796875 136.472656 194.683594 147.53125 192.484375 152.40625 C 187.667969 150.324219 182.851562 148.183594 178.152344 145.925781 C 181.960938 138.613281 184.21875 134.570312 186.597656 130.289062 C 186.539062 130.109375 186.0625 129.992188 186.0625 129.992188 C 185.167969 131.535156 181.960938 137.183594 177.441406 145.628906 C 172.742188 143.367188 168.105469 141.050781 163.589844 138.613281 C 163.765625 138.375 164.003906 138.015625 164.183594 137.78125 C 168.820312 130.230469 171.972656 125.355469 173.339844 123.332031 L 173.101562 123.214844 L 172.566406 123.808594 C 167.511719 131.300781 164.421875 136.234375 163.113281 138.375 C 151.339844 132.191406 140.28125 125.414062 130.117188 118.277344 C 140.164062 125.828125 151.101562 132.785156 162.578125 139.148438 L 162.339844 139.5625 C 159.128906 144.734375 156.273438 149.671875 153.183594 155.019531 C 153.363281 155.140625 153.835938 155.378906 153.898438 155.378906 C 157.046875 149.671875 159.84375 144.914062 163.113281 139.445312 C 167.632812 141.941406 172.207031 144.320312 176.847656 146.636719 C 176.785156 146.757812 171.199219 157.339844 168.464844 162.808594 C 148.011719 153 129.046875 141.761719 113.171875 129.695312 C 125.121094 139.207031 138.558594 148.003906 152.707031 155.855469 L 152.230469 156.6875 C 149.199219 162.035156 146.820312 166.496094 143.96875 171.964844 L 143.910156 172.085938 C 124.882812 161.859375 107.640625 150.503906 93.550781 138.613281 C 135.230469 175.59375 207.820312 206.210938 265.492188 216.199219 C 264.066406 222.441406 262.816406 227.4375 261.09375 233.558594 C 258.238281 233.085938 255.503906 232.609375 252.886719 232.074219 C 250.09375 231.539062 247.238281 230.945312 244.445312 230.289062 C 246.289062 224.226562 247.714844 219.171875 249.320312 212.929688 C 248.84375 212.808594 248.308594 212.691406 247.835938 212.574219 L 247.714844 213.109375 C 246.167969 218.992188 244.683594 224.167969 242.898438 229.933594 C 237.191406 228.625 231.484375 227.257812 225.777344 225.652344 C 227.738281 219.589844 229.34375 214.59375 231.1875 208.351562 L 229.761719 207.933594 L 229.582031 208.46875 C 227.796875 214.296875 226.191406 219.46875 224.289062 225.175781 C 218.523438 223.570312 212.816406 221.847656 207.050781 220.003906 C 209.25 213.761719 210.855469 209.125 212.996094 202.820312 L 211.6875 202.40625 C 211.625 202.585938 207.703125 213.941406 205.679688 219.589844 C 205.800781 219.648438 205.917969 219.648438 205.980469 219.707031 C 205.859375 219.648438 205.742188 219.648438 205.679688 219.589844 C 151.578125 201.929688 100.507812 173.628906 72.207031 144.082031 C 88.023438 161.382812 109.960938 177.316406 134.753906 190.929688 L 134.632812 191.167969 C 132.078125 196.699219 129.816406 201.871094 127.5 207.398438 C 94.382812 189.5625 67.449219 169.050781 54.191406 149.671875 C 54.191406 149.671875 54.191406 149.671875 54.191406 149.730469 C 68.34375 171.253906 95.097656 191.765625 126.90625 208.945312 L 126.785156 209.242188 C 124.347656 215.128906 122.742188 219.351562 120.601562 225.296875 C 87.367188 207.460938 60.496094 186.949219 47.296875 167.625 C 47.296875 167.625 47.296875 167.625 47.296875 167.683594 C 61.503906 189.207031 88.199219 209.71875 119.890625 226.960938 L 119.828125 227.078125 C 117.925781 232.488281 116.382812 237.246094 114.777344 242.417969 C 115.074219 242.597656 115.429688 242.773438 115.726562 242.953125 C 116.441406 240.695312 118.046875 235.460938 120.664062 228.148438 L 120.898438 227.496094 C 126.011719 230.230469 131.246094 232.964844 136.597656 235.523438 L 136.535156 235.699219 C 134.574219 241.050781 132.96875 245.6875 131.246094 250.800781 L 132.375 251.335938 C 133.148438 249.136719 134.871094 243.964844 137.546875 236.769531 L 137.785156 236.117188 C 143.195312 238.671875 148.664062 241.171875 154.195312 243.546875 L 154.136719 243.785156 C 152.230469 248.839844 150.328125 253.832031 148.605469 258.648438 C 149.023438 258.828125 149.4375 259.007812 149.855469 259.183594 C 151.636719 254.429688 153.421875 249.613281 155.265625 244.855469 L 155.5625 244.144531 C 161.152344 246.519531 166.796875 248.78125 172.507812 250.921875 L 172.386719 251.21875 C 170.484375 256.09375 168.523438 261.027344 166.621094 265.902344 L 167.867188 266.378906 C 169.296875 262.929688 173.753906 251.691406 173.875 251.457031 C 179.640625 253.597656 185.40625 255.617188 191.175781 257.519531 L 191.054688 257.875 C 188.976562 262.988281 187.011719 267.625 184.992188 272.382812 C 185.46875 272.5625 185.941406 272.679688 186.417969 272.859375 C 187.25 270.957031 189.511719 265.84375 192.363281 258.828125 L 192.71875 257.996094 C 198.546875 259.898438 204.375 261.621094 210.082031 263.226562 L 209.902344 263.585938 C 207.703125 268.757812 205.742188 273.214844 203.542969 277.972656 C 142.777344 261.148438 83.265625 229.8125 52.050781 197.054688 C 67.628906 214.058594 89.628906 229.8125 114.480469 243.429688 L 114.359375 243.785156 C 112.8125 248.898438 111.625 253.296875 110.496094 258.113281 L 111.386719 258.589844 C 111.921875 256.507812 113.113281 251.632812 115.191406 244.796875 L 115.429688 243.964844 C 120.484375 246.699219 125.65625 249.375 130.886719 251.929688 L 130.769531 252.289062 C 129.164062 257.222656 127.738281 261.679688 126.429688 266.257812 L 127.441406 266.734375 C 127.976562 264.890625 129.460938 259.957031 131.722656 253.238281 L 132.019531 252.40625 C 137.308594 254.964844 142.71875 257.402344 148.128906 259.777344 L 148.011719 260.136719 C 146.226562 265.128906 144.742188 269.171875 143.195312 273.75 C 143.550781 273.929688 143.96875 274.109375 144.324219 274.226562 C 144.917969 272.621094 149.320312 260.492188 149.378906 260.253906 C 154.90625 262.632812 160.496094 264.832031 166.085938 266.972656 L 165.90625 267.390625 C 164.125 271.847656 162.339844 276.308594 160.554688 280.765625 L 161.683594 281.183594 C 163.171875 277.554688 165.90625 270.898438 166.976562 268.339844 L 167.332031 267.507812 C 172.980469 269.648438 178.6875 271.667969 184.335938 273.511719 C 184.277344 273.632812 180.234375 282.789062 178.273438 287.070312 C 133.148438 272.382812 89.925781 249.789062 60.671875 224.820312 C 121.96875 278.984375 259.546875 323.8125 305.324219 296.164062 L 305.207031 296.285156 C 305.265625 296.222656 305.386719 296.164062 305.503906 296.046875 C 307.644531 294.738281 309.605469 293.25 311.332031 291.585938 L 311.867188 290.992188 C 310.203125 292.480469 308.417969 293.847656 306.394531 295.09375 C 308.417969 292.835938 312.460938 287.722656 315.730469 282.90625 C 315.847656 282.789062 315.96875 282.609375 316.027344 282.429688 C 316.027344 282.429688 315.96875 282.429688 315.96875 282.492188 C 315.847656 282.550781 315.730469 282.550781 315.671875 282.667969 C 314.125 284.691406 312.757812 286.890625 311.210938 288.910156 C 309.070312 291.765625 307.230469 293.90625 306.039062 295.332031 C 303.660156 296.757812 301.105469 298.007812 298.25 299.078125 C 301.046875 296.402344 307.644531 286.769531 307.703125 286.652344 C 307.824219 286.535156 307.941406 286.355469 308 286.175781 C 308 286.175781 307.941406 286.175781 307.941406 286.175781 C 307.824219 286.234375 307.585938 286.175781 307.527344 286.355469 C 305.980469 288.316406 304.671875 290.457031 303.1875 292.480469 C 300.867188 295.570312 298.964844 297.890625 297.835938 299.257812 C 294.921875 300.328125 291.828125 301.160156 288.441406 301.871094 C 288.855469 301.574219 289.453125 300.800781 290.9375 298.960938 C 292.601562 296.878906 295.101562 293.550781 297.835938 289.328125 C 297.894531 289.207031 298.011719 289.03125 298.132812 288.910156 C 298.132812 288.910156 297.597656 289.03125 297.359375 289.03125 C 294.207031 293.90625 291.414062 297.652344 287.847656 301.992188 C 284.457031 302.644531 280.890625 303.121094 277.027344 303.417969 C 278.273438 301.871094 281.902344 297.355469 286.0625 290.8125 L 286.359375 290.398438 C 304.019531 289.089844 317.574219 284.15625 324.53125 274.941406 L 325.066406 274.105469 C 322.863281 277.019531 320.070312 279.457031 316.800781 281.421875 C 318.464844 279.457031 322.925781 271.609375 325.242188 266.914062 C 325.300781 266.734375 325.421875 266.558594 325.480469 266.4375 C 325.480469 266.4375 325.421875 266.4375 325.421875 266.496094 C 325.300781 266.558594 325.125 266.558594 325.066406 266.675781 C 323.757812 268.933594 322.6875 271.3125 321.378906 273.574219 C 319.238281 277.316406 317.453125 280.113281 316.503906 281.597656 C 314.066406 283.027344 311.449219 284.273438 308.597656 285.285156 C 309.011719 284.988281 309.429688 284.273438 311.273438 281.242188 C 313.351562 277.792969 315.253906 274.34375 316.980469 270.777344 C 317.039062 270.660156 317.15625 270.421875 317.21875 270.300781 C 317.21875 270.300781 317.15625 270.300781 317.15625 270.300781 C 316.980469 270.363281 316.800781 270.300781 316.683594 270.480469 C 315.375 272.679688 314.304688 275.058594 313.054688 277.257812 C 310.855469 281.183594 309.070312 284.035156 308.179688 285.402344 C 298.25 288.851562 285.945312 289.804688 273.578125 289.507812 C 273.398438 289.507812 273.160156 289.507812 272.984375 289.507812 C 272.921875 289.507812 272.625 289.507812 272.507812 289.507812 C 267.8125 289.386719 263.113281 289.03125 258.476562 288.554688 C 259.488281 286.832031 262.398438 281.65625 265.789062 274.34375 L 265.96875 273.929688 C 270.902344 274.40625 275.660156 274.703125 280.238281 274.820312 C 277.679688 280.230469 275.421875 284.511719 272.507812 289.445312 C 272.625 289.445312 273.398438 289.445312 273.578125 289.445312 C 274.589844 287.722656 277.679688 282.492188 281.128906 275.175781 L 281.308594 274.761719 C 285.765625 274.820312 290.046875 274.761719 294.089844 274.464844 C 291.472656 279.933594 289.15625 284.214844 286.121094 289.207031 C 286.417969 289.207031 286.71875 289.148438 287.015625 289.148438 C 288.085938 287.425781 291.296875 282.191406 294.863281 274.878906 L 295.101562 274.40625 C 314.363281 272.917969 328.808594 267.210938 335.289062 256.269531 L 335.765625 255.261719 C 333.746094 259.125 330.414062 262.394531 326.015625 265.070312 C 326.433594 264.476562 327.207031 262.871094 329.226562 258.113281 C 331.128906 253.597656 332.316406 249.96875 332.792969 248.601562 C 337.90625 245.390625 341.59375 241.230469 343.613281 235.996094 L 343.972656 234.988281 C 342.304688 240.039062 338.5625 244.203125 333.152344 247.414062 C 333.269531 247.117188 335.648438 240.398438 337.726562 229.992188 C 337.726562 229.992188 337.429688 230.171875 337.371094 230.230469 C 334.160156 243.371094 334.160156 243.371094 332.734375 247.648438 C 330.414062 248.957031 327.859375 250.148438 324.945312 251.097656 C 325.183594 250.503906 327.503906 243.84375 329.644531 233.796875 C 329.644531 233.796875 329.285156 233.917969 329.109375 233.976562 C 327.503906 239.742188 326.253906 245.628906 324.410156 251.335938 C 321.558594 252.289062 318.347656 253.0625 314.957031 253.714844 C 316.859375 247.886719 318.347656 242.597656 319.65625 236.472656 C 319.65625 236.472656 319.121094 236.59375 318.882812 236.59375 C 317.453125 242.835938 316.085938 247.828125 314.125 253.832031 C 310.617188 254.429688 306.929688 254.902344 302.949219 255.140625 C 304.910156 249.316406 306.394531 244.023438 307.765625 237.960938 C 307.703125 237.960938 307.167969 238.019531 306.871094 238.019531 C 305.386719 244.261719 303.957031 249.195312 301.9375 255.140625 C 297.894531 255.378906 293.671875 255.4375 289.15625 255.378906 C 291.117188 249.613281 292.664062 244.320312 294.148438 238.316406 C 294.089844 238.316406 293.375 238.316406 293.078125 238.316406 C 291.53125 244.5 290.046875 249.492188 288.023438 255.378906 C 283.507812 255.261719 278.75 254.964844 273.757812 254.488281 C 275.71875 248.71875 277.382812 243.488281 278.988281 237.484375 C 315.730469 240.871094 343.613281 234.511719 349.085938 214.949219 L 349.203125 214.355469 C 347.242188 220.597656 343.316406 225.234375 337.964844 228.625 C 338.324219 226.960938 339.570312 220.359375 340.226562 211.144531 C 340.226562 211.144531 339.988281 211.265625 339.867188 211.324219 C 338.261719 224.761719 338.203125 225.175781 337.550781 228.863281 C 335.230469 230.347656 332.617188 231.539062 329.820312 232.550781 C 330.117188 231.539062 331.546875 224.523438 332.378906 214.949219 C 339.035156 212.394531 344.269531 208.707031 347.597656 203.832031 C 345.636719 206.269531 343.199219 208.351562 340.226562 210.136719 Z M 338.261719 173.273438 C 338.203125 173.273438 338.203125 173.332031 338.144531 173.332031 C 338.203125 173.273438 338.261719 173.273438 338.261719 173.273438 Z M 331.246094 176.542969 C 331.1875 176.542969 331.128906 176.601562 331.128906 176.601562 C 331.1875 176.542969 331.308594 176.542969 331.246094 176.542969 C 331.308594 176.542969 331.246094 176.542969 331.246094 176.542969 Z M 322.566406 178.863281 C 322.507812 178.863281 322.507812 178.863281 322.449219 178.863281 C 322.566406 178.863281 322.628906 178.804688 322.628906 178.804688 C 322.628906 178.863281 322.628906 178.863281 322.566406 178.863281 Z M 312.28125 180.230469 L 312.222656 180.230469 C 312.28125 180.230469 312.402344 180.230469 312.402344 180.230469 C 312.28125 180.171875 312.28125 180.230469 312.28125 180.230469 Z M 319.714844 159.71875 C 319.714844 159.71875 319.65625 159.71875 319.65625 159.71875 C 319.714844 159.71875 319.773438 159.71875 319.714844 159.71875 Z M 310.203125 160.964844 L 310.023438 160.964844 C 310.140625 160.964844 310.261719 160.964844 310.261719 160.964844 C 310.261719 160.964844 310.261719 160.964844 310.203125 160.964844 Z M 340.285156 192.179688 C 340.285156 192.179688 340.226562 192.179688 340.226562 192.238281 C 340.285156 192.179688 340.34375 192.179688 340.285156 192.179688 Z M 331.84375 213.878906 C 329.046875 214.773438 326.015625 215.546875 322.746094 216.140625 C 323.164062 211.917969 323.636719 206.152344 323.636719 198.601562 C 326.789062 198.007812 329.761719 197.234375 332.4375 196.28125 C 332.4375 196.578125 332.4375 196.875 332.4375 197.113281 C 332.496094 202.40625 332.316406 208.054688 331.84375 213.878906 Z M 322.984375 198.71875 C 322.925781 207.28125 322.269531 213.761719 322.03125 216.257812 C 318.703125 216.851562 315.078125 217.269531 311.273438 217.507812 C 311.984375 211.503906 312.402344 206.03125 312.640625 199.96875 C 316.265625 199.730469 319.714844 199.3125 322.984375 198.71875 Z M 311.925781 200.027344 C 311.273438 205.855469 311.152344 211.742188 310.4375 217.566406 C 306.574219 217.804688 302.472656 217.863281 298.132812 217.746094 C 299.023438 211.742188 299.617188 206.328125 300.035156 200.207031 C 304.195312 200.324219 308.179688 200.265625 311.925781 200.027344 Z M 207.523438 160.015625 C 207.464844 160.132812 202.769531 172.558594 201.222656 176.664062 C 195.929688 174.699219 190.699219 172.621094 185.527344 170.417969 C 187.84375 165.007812 190.402344 159.183594 192.71875 153.949219 C 197.65625 156.089844 202.589844 158.113281 207.523438 160.015625 Z M 208.355469 160.371094 C 213.410156 162.273438 218.40625 164.117188 223.457031 165.78125 C 223.398438 165.960938 220.960938 173.988281 218.226562 182.667969 C 212.875 180.941406 207.523438 179.039062 202.234375 177.078125 C 205.027344 169.46875 207.40625 162.988281 208.355469 160.371094 Z M 224.46875 166.078125 C 229.523438 167.746094 234.574219 169.289062 239.570312 170.71875 L 239.511719 171.015625 C 237.488281 179.695312 236.0625 185.164062 235.347656 187.78125 C 229.996094 186.292969 224.707031 184.6875 219.355469 183.023438 C 220.246094 180.230469 221.851562 174.996094 224.46875 166.078125 Z M 240.757812 171.015625 C 245.8125 172.441406 250.867188 173.691406 255.800781 174.820312 L 255.742188 175.117188 C 254.789062 181.003906 253.78125 186.234375 252.589844 192.121094 C 247.300781 190.929688 242.007812 189.625 236.65625 188.195312 C 238.855469 179.515625 240.164062 173.691406 240.757812 171.015625 Z M 257.050781 175.117188 C 262.042969 176.246094 266.917969 177.136719 271.675781 177.96875 C 271.019531 184.152344 270.367188 189.207031 269.414062 195.449219 C 266.917969 195.035156 264.363281 194.558594 261.804688 194.082031 C 259.191406 193.546875 256.574219 193.011719 253.957031 192.476562 C 255.148438 186.234375 256.039062 181.242188 257.050781 175.117188 Z M 270.722656 195.628906 C 271.617188 189.683594 272.269531 184.09375 272.863281 178.148438 C 277.5 178.921875 282.019531 179.515625 286.417969 179.933594 C 286.0625 187.722656 285.527344 193.488281 285.050781 197.589844 C 280.472656 197.054688 275.660156 196.402344 270.722656 195.628906 Z M 284.816406 199.3125 C 284.101562 205.496094 283.328125 210.609375 282.199219 216.792969 C 277.382812 216.316406 272.390625 215.664062 267.214844 214.832031 C 268.464844 208.945312 269.476562 203.417969 270.425781 197.410156 C 275.363281 198.183594 280.175781 198.839844 284.816406 199.3125 Z M 285.945312 199.375 C 290.460938 199.789062 294.863281 200.085938 299.082031 200.207031 C 298.609375 206.449219 298.011719 211.5625 297.121094 217.746094 C 292.78125 217.625 288.203125 217.328125 283.445312 216.851562 C 284.515625 210.90625 285.289062 205.4375 285.945312 199.375 Z M 299.203125 198.542969 C 295.039062 198.421875 290.699219 198.125 286.121094 197.648438 C 286.953125 189.742188 287.191406 184.09375 287.371094 179.992188 C 291.652344 180.40625 295.8125 180.644531 299.738281 180.765625 C 299.796875 184.925781 299.738281 190.695312 299.203125 198.542969 Z M 300.511719 180.46875 L 299.796875 180.46875 L 300.628906 180.46875 Z M 299.378906 161.265625 L 299.261719 161.265625 C 299.378906 161.265625 299.441406 161.265625 299.441406 161.265625 Z M 298.90625 161.382812 C 298.964844 167.328125 299.679688 173.214844 299.738281 179.160156 C 295.8125 179.039062 291.710938 178.742188 287.429688 178.328125 C 287.609375 172.261719 287.609375 166.675781 287.371094 160.730469 C 291.355469 161.085938 295.21875 161.324219 298.90625 161.382812 Z M 287.253906 160.550781 L 287.074219 160.550781 C 287.191406 160.550781 287.371094 160.550781 287.371094 160.550781 Z M 287.132812 159.300781 C 286.953125 159.300781 286.65625 159.242188 286.539062 159.242188 C 286.71875 159.242188 286.894531 159.300781 287.132812 159.300781 Z M 286.539062 160.667969 C 286.71875 166.851562 286.65625 171.964844 286.417969 178.269531 C 282.140625 177.792969 277.621094 177.199219 272.921875 176.484375 C 273.578125 168.875 273.816406 162.929688 273.933594 159.0625 C 278.335938 159.71875 282.496094 160.253906 286.539062 160.667969 Z M 272.984375 158.828125 C 272.804688 163.046875 272.507812 168.398438 271.792969 176.246094 C 269.476562 175.832031 267.097656 175.414062 264.660156 174.996094 C 262.222656 174.523438 259.726562 173.988281 257.289062 173.453125 C 258.417969 166.019531 259.070312 160.132812 259.488281 156.269531 C 264.066406 157.28125 268.582031 158.113281 272.984375 158.828125 Z M 258.417969 155.972656 L 258.359375 156.6875 C 257.882812 160.730469 257.226562 165.78125 256.039062 173.15625 C 251.105469 172.023438 246.109375 170.777344 241.054688 169.46875 C 242.363281 163.402344 243.375 158.46875 244.503906 152.464844 C 249.203125 153.773438 253.839844 154.960938 258.417969 155.972656 Z M 244.503906 151.097656 C 244.265625 151.039062 243.96875 150.976562 243.792969 150.917969 Z M 243.492188 152.582031 C 242.363281 158.171875 241.234375 163.464844 239.925781 169.171875 C 234.933594 167.804688 229.878906 166.257812 224.886719 164.652344 C 226.550781 158.828125 228.035156 153.652344 229.582031 147.945312 C 234.277344 149.492188 238.976562 150.917969 243.554688 152.226562 Z M 200.449219 136.769531 C 204.96875 138.730469 209.546875 140.632812 214.125 142.417969 C 214.0625 142.535156 210.082031 153.296875 208 158.765625 L 208.832031 159.0625 C 210.617188 154.128906 213.410156 146.519531 214.777344 142.65625 C 219.414062 144.4375 224.113281 146.101562 228.691406 147.648438 C 228.628906 147.769531 225.480469 158.765625 223.816406 164.296875 C 213.46875 160.90625 203.242188 157.101562 193.195312 152.820312 C 195.691406 147.234375 198.011719 142.121094 200.449219 136.769531 Z M 177.796875 145.925781 C 177.621094 145.867188 177.441406 145.746094 177.320312 145.6875 C 177.5 145.804688 177.621094 145.867188 177.796875 145.925781 Z M 177.558594 146.933594 C 182.257812 149.253906 187.074219 151.453125 191.828125 153.59375 C 191.769531 153.714844 186.714844 165.007812 184.515625 170.003906 C 179.402344 167.804688 174.347656 165.542969 169.355469 163.167969 C 172.207031 157.339844 174.644531 152.644531 177.558594 146.933594 Z M 144.859375 172.441406 C 147.832031 166.613281 150.328125 161.917969 153.421875 156.210938 C 158.175781 158.828125 163.054688 161.382812 167.929688 163.820312 L 167.75 164.238281 C 164.0625 171.609375 161.863281 176.1875 159.960938 180.289062 C 154.789062 177.792969 149.734375 175.234375 144.800781 172.621094 Z M 160.4375 180.46875 L 160.851562 180.644531 L 160.972656 180.707031 C 163.589844 175.117188 166.203125 169.527344 168.820312 164.175781 C 173.8125 166.613281 178.867188 168.933594 183.980469 171.191406 C 182.792969 173.867188 180.292969 179.574219 176.785156 187.839844 L 177.796875 188.257812 L 177.917969 188.316406 C 180.472656 182.191406 182.554688 177.375 184.992188 171.667969 C 190.164062 173.925781 195.394531 176.066406 200.6875 178.089844 C 200.6875 178.148438 195.632812 191.347656 194.265625 194.855469 L 195.21875 195.210938 L 195.335938 195.273438 C 196.941406 191.050781 199.972656 182.847656 201.636719 178.445312 C 206.988281 180.46875 212.339844 182.371094 217.632812 184.152344 C 217.632812 184.214844 213.945312 195.507812 212.042969 201.15625 C 194.324219 195.332031 176.90625 188.375 160.4375 180.46875 Z M 218.878906 184.570312 C 224.289062 186.351562 229.640625 187.957031 234.933594 189.445312 C 234.933594 189.503906 231.839844 200.742188 230.117188 206.566406 C 224.527344 205.023438 218.941406 203.355469 213.410156 201.574219 C 215.371094 195.628906 217.035156 190.515625 218.878906 184.570312 Z M 236.242188 189.800781 C 241.652344 191.289062 246.941406 192.65625 252.234375 193.84375 L 252.175781 194.082031 C 250.925781 199.910156 249.675781 205.320312 248.191406 211.085938 C 242.660156 209.835938 237.132812 208.46875 231.542969 206.925781 C 233.269531 200.859375 234.636719 195.867188 236.242188 189.800781 Z M 257.882812 213.109375 C 255.148438 212.574219 252.414062 211.976562 249.675781 211.382812 C 251.222656 205.261719 252.351562 200.265625 253.601562 194.082031 C 258.894531 195.273438 264.066406 196.28125 269.179688 197.113281 C 268.167969 203.296875 267.214844 208.351562 265.910156 214.535156 C 263.234375 214.117188 260.558594 213.644531 257.882812 213.109375 Z M 266.503906 216.257812 C 266.207031 216.199219 265.789062 216.140625 265.550781 216.082031 C 265.847656 216.140625 266.144531 216.199219 266.503906 216.257812 Z M 266.859375 216.4375 C 271.972656 217.328125 277.027344 217.984375 281.902344 218.519531 C 280.710938 224.761719 279.582031 229.753906 277.976562 235.878906 C 272.625 235.34375 267.453125 234.570312 262.578125 233.796875 C 264.183594 227.910156 265.550781 222.441406 266.859375 216.4375 Z M 262.164062 233.738281 C 261.804688 233.679688 261.332031 233.621094 261.03125 233.558594 C 261.449219 233.621094 261.804688 233.679688 262.164062 233.738281 Z M 260.617188 235.164062 C 258.832031 241.289062 257.226562 246.222656 255.148438 252.109375 C 252.414062 251.632812 249.675781 251.160156 246.824219 250.625 C 243.96875 250.089844 241.117188 249.492188 238.261719 248.839844 C 240.402344 242.953125 242.007812 238.078125 243.910156 231.953125 C 249.558594 233.203125 255.148438 234.273438 260.617188 235.164062 Z M 243.96875 230.230469 C 243.613281 230.171875 243.078125 230.050781 242.78125 229.992188 C 243.195312 230.050781 243.613281 230.113281 243.96875 230.230469 Z M 242.304688 231.597656 L 242.1875 232.074219 C 240.34375 237.839844 238.617188 242.894531 236.597656 248.484375 C 230.832031 247.175781 225.0625 245.746094 219.296875 244.144531 C 221.4375 238.316406 223.160156 233.441406 225.183594 227.375 C 230.949219 228.921875 236.65625 230.347656 242.304688 231.597656 Z M 225.242188 225.59375 C 224.886719 225.472656 224.46875 225.355469 224.171875 225.296875 Z M 223.636719 226.960938 L 223.515625 227.375 C 221.554688 233.144531 219.773438 238.136719 217.691406 243.726562 C 211.863281 242.121094 206.039062 240.335938 200.269531 238.496094 C 202.410156 232.785156 204.253906 227.734375 206.394531 221.847656 C 212.160156 223.632812 217.929688 225.355469 223.636719 226.960938 Z M 198.785156 237.898438 C 192.957031 235.996094 187.191406 233.976562 181.484375 231.835938 C 182.496094 229.21875 186.714844 218.222656 187.84375 215.308594 C 193.554688 217.449219 199.261719 219.46875 204.96875 221.3125 C 204.96875 221.429688 200.867188 232.488281 198.785156 237.898438 Z M 180.117188 231.300781 C 174.410156 229.160156 168.699219 226.839844 163.171875 224.464844 C 165.429688 218.816406 167.453125 213.703125 169.769531 207.996094 C 175.300781 210.371094 180.949219 212.632812 186.597656 214.773438 Z M 161.863281 223.929688 C 156.273438 221.550781 150.804688 219.054688 145.453125 216.496094 C 147.773438 210.730469 149.792969 205.914062 152.351562 200.085938 C 157.703125 202.644531 163.113281 205.140625 168.582031 207.519531 C 168.523438 207.578125 164.003906 218.636719 161.863281 223.929688 Z M 135.644531 191.527344 C 140.699219 194.320312 145.929688 196.996094 151.222656 199.550781 C 151.164062 199.613281 146.523438 210.492188 144.265625 215.960938 C 138.855469 213.34375 133.625 210.730469 128.511719 207.996094 C 130.886719 202.109375 132.96875 197.351562 135.644531 191.527344 Z M 127.914062 207.757812 C 127.738281 207.636719 127.558594 207.578125 127.378906 207.460938 Z M 121.496094 225.832031 C 121.851562 224.820312 122.921875 221.964844 124.171875 218.695312 C 125.714844 214.652344 126.667969 212.335938 127.855469 209.421875 C 132.96875 212.15625 138.261719 214.832031 143.613281 217.449219 L 143.433594 217.804688 C 140.9375 223.929688 139.507812 227.675781 137.25 233.738281 C 131.898438 231.242188 126.609375 228.566406 121.496094 225.832031 Z M 138.4375 234.390625 C 139.628906 231.300781 143.253906 221.847656 144.800781 218.042969 C 150.210938 220.597656 155.679688 223.097656 161.269531 225.472656 C 161.210938 225.59375 157.582031 234.808594 154.90625 241.765625 C 149.257812 239.445312 143.789062 236.949219 138.4375 234.390625 Z M 193.253906 256.269531 C 193.671875 255.261719 197.773438 245.035156 199.675781 239.980469 L 198.191406 239.503906 C 198.128906 239.683594 193.851562 250.683594 191.769531 255.796875 C 185.941406 253.894531 180.175781 251.871094 174.46875 249.730469 C 175.417969 247.414062 179.640625 236.652344 180.890625 233.441406 L 179.523438 232.90625 L 173.101562 249.195312 C 167.394531 247.054688 161.746094 244.738281 156.15625 242.417969 C 157.046875 240.101562 161.625 228.328125 162.519531 226.128906 C 199.378906 241.765625 238.855469 252.703125 271.675781 256.152344 C 269.59375 261.917969 267.574219 266.914062 265.195312 272.324219 C 260.199219 271.789062 254.96875 271.136719 249.558594 270.242188 C 250.09375 269.054688 251.164062 266.558594 252.472656 263.347656 C 253.601562 260.550781 254.789062 257.402344 256.039062 254.070312 C 255.980469 254.070312 254.910156 253.894531 254.492188 253.832031 C 252.414062 259.542969 250.332031 264.714844 248.011719 270.066406 C 245.277344 269.589844 242.542969 269.113281 239.6875 268.578125 C 236.835938 268.042969 233.980469 267.449219 231.128906 266.792969 C 231.664062 265.488281 232.734375 263.109375 234.039062 259.839844 C 235.644531 255.796875 237.132812 251.871094 237.609375 250.5625 C 237.074219 250.445312 236.476562 250.324219 235.945312 250.207031 L 235.765625 250.742188 C 233.804688 256.035156 231.664062 261.324219 229.523438 266.4375 C 223.753906 265.128906 217.988281 263.703125 212.222656 262.097656 C 212.636719 261.027344 213.765625 258.410156 215.074219 255.199219 C 215.789062 253.417969 216.976562 250.386719 218.640625 245.867188 C 218.105469 245.746094 217.570312 245.570312 217.035156 245.449219 L 216.859375 245.984375 C 215.730469 248.957031 213.410156 254.964844 210.617188 261.679688 C 204.847656 259.898438 199.023438 258.113281 193.253906 256.269531 Z M 232.019531 284.691406 C 229.226562 284.15625 226.429688 283.5625 223.578125 282.90625 C 224.648438 280.824219 227.023438 276.011719 230.058594 269.171875 L 230.472656 268.28125 C 236.179688 269.53125 241.828125 270.601562 247.300781 271.550781 C 244.863281 276.960938 242.839844 281.183594 240.164062 286.175781 C 237.371094 285.640625 234.574219 285.164062 232.019531 284.691406 Z M 211.152344 264.417969 L 211.507812 263.523438 C 217.335938 265.128906 223.101562 266.558594 228.808594 267.863281 L 228.628906 268.28125 C 226.429688 273.335938 224.289062 277.851562 221.972656 282.550781 C 216.265625 281.300781 210.554688 279.875 204.910156 278.328125 C 205.917969 276.246094 208.238281 271.371094 211.152344 264.417969 Z M 185.347656 274.878906 L 185.703125 273.988281 C 191.414062 275.832031 197.121094 277.554688 202.828125 279.160156 L 202.648438 279.578125 C 200.449219 284.15625 198.429688 288.257812 196.226562 292.480469 C 190.640625 290.933594 185.109375 289.269531 179.582031 287.484375 C 180.414062 285.761719 182.554688 281.183594 185.347656 274.878906 Z M 203.957031 280.46875 L 204.375 279.578125 C 210.140625 281.183594 215.789062 282.609375 221.378906 283.859375 L 221.140625 284.273438 C 218.761719 288.910156 216.621094 292.777344 214.183594 296.996094 C 208.652344 295.75 203.125 294.382812 197.59375 292.894531 C 198.546875 291.109375 200.925781 286.710938 203.957031 280.46875 Z M 215.667969 297.292969 C 216.679688 295.628906 219.296875 291.230469 222.507812 285.046875 C 222.625 284.808594 222.804688 284.453125 222.921875 284.15625 C 228.570312 285.402344 234.101562 286.472656 239.511719 287.367188 C 236.835938 292.242188 234.636719 295.988281 231.78125 300.386719 C 229.164062 299.96875 226.550781 299.496094 223.816406 298.960938 C 221.140625 298.484375 218.40625 297.890625 215.667969 297.292969 Z M 240.757812 288.078125 L 240.996094 287.664062 C 246.230469 288.496094 251.402344 289.207031 256.335938 289.683594 C 253.542969 294.558594 251.105469 298.304688 248.070312 302.644531 C 243.316406 302.167969 238.382812 301.457031 233.148438 300.625 C 234.21875 299.136719 237.191406 294.558594 240.757812 288.078125 Z M 271.675781 290.695312 C 268.703125 295.570312 266.144531 299.316406 262.875 303.714844 C 263.234375 303.714844 263.53125 303.714844 263.886719 303.714844 C 265.015625 302.230469 268.464844 297.652344 272.507812 291.109375 L 272.746094 290.695312 C 277.144531 290.753906 281.367188 290.695312 285.351562 290.398438 C 282.257812 295.273438 279.582031 299.078125 276.132812 303.417969 C 268.167969 303.953125 259.191406 303.714844 249.261719 302.765625 C 250.332031 301.277344 253.601562 296.699219 257.40625 290.160156 L 257.644531 289.742188 C 262.460938 290.277344 267.15625 290.574219 271.675781 290.695312 Z M 257.109375 288.375 C 251.757812 287.839844 246.585938 287.128906 241.710938 286.355469 C 242.660156 284.628906 245.457031 279.457031 248.726562 272.144531 L 248.90625 271.730469 C 254.253906 272.5625 259.425781 273.273438 264.480469 273.75 C 262.042969 279.21875 259.84375 283.441406 257.109375 288.375 Z M 281.128906 274.761719 C 281.070312 274.761719 281.007812 274.761719 280.949219 274.761719 C 281.128906 274.761719 281.246094 274.761719 281.246094 274.761719 Z M 294.921875 274.464844 C 294.863281 274.464844 294.804688 274.464844 294.742188 274.464844 C 294.921875 274.464844 294.980469 274.464844 295.039062 274.464844 C 294.980469 274.464844 294.921875 274.464844 294.921875 274.464844 Z M 332.257812 248.957031 C 331.246094 251.394531 330.476562 253.953125 329.464844 256.390625 C 327.742188 260.671875 326.3125 263.761719 325.539062 265.367188 C 323.28125 266.675781 320.664062 267.863281 317.8125 268.875 C 318.464844 267.507812 319.535156 265.128906 320.902344 261.980469 C 322.6875 257.699219 323.875 254.132812 324.410156 252.703125 C 327.324219 251.574219 329.941406 250.386719 332.257812 248.957031 Z M 323.816406 252.882812 C 321.617188 258.292969 319.65625 263.820312 317.15625 269.113281 C 314.246094 270.066406 311.09375 270.898438 307.703125 271.550781 C 308.296875 270.242188 309.429688 267.863281 310.796875 264.59375 C 312.519531 260.433594 313.769531 256.804688 314.246094 255.378906 C 317.691406 254.726562 320.902344 253.894531 323.816406 252.882812 Z M 314.601562 253.832031 C 314.421875 253.894531 314.125 253.894531 314.007812 253.953125 C 314.183594 253.894531 314.363281 253.832031 314.601562 253.832031 Z M 313.410156 255.558594 C 311.390625 261.382812 309.429688 266.199219 306.871094 271.667969 C 303.421875 272.265625 299.679688 272.738281 295.695312 273.039062 C 296.289062 271.730469 297.417969 269.351562 298.726562 266.140625 C 299.855469 263.347656 301.046875 260.253906 302.175781 256.984375 C 306.160156 256.628906 309.902344 256.152344 313.410156 255.558594 Z M 302.53125 255.261719 C 302.292969 255.261719 301.996094 255.320312 301.878906 255.320312 C 302.054688 255.320312 302.292969 255.261719 302.53125 255.261719 Z M 301.285156 256.984375 C 299.261719 262.632812 297.179688 267.746094 294.804688 273.097656 C 290.761719 273.335938 286.539062 273.453125 282.019531 273.335938 C 282.613281 272.027344 283.683594 269.648438 284.992188 266.4375 C 286.71875 262.214844 288.023438 258.589844 288.5 257.222656 C 292.898438 257.28125 297.179688 257.222656 301.285156 256.984375 Z M 288.621094 255.5 C 288.382812 255.5 288.085938 255.5 287.847656 255.5 C 288.144531 255.5 288.382812 255.5 288.621094 255.5 Z M 287.3125 257.164062 C 285.289062 262.929688 283.269531 267.863281 280.832031 273.273438 C 276.3125 273.15625 271.554688 272.859375 266.5625 272.382812 C 267.097656 271.195312 268.226562 268.695312 269.535156 265.488281 C 270.664062 262.632812 271.855469 259.542969 273.042969 256.210938 C 277.976562 256.6875 282.734375 257.042969 287.3125 257.164062 Z M 272.328125 254.367188 C 267.335938 253.832031 262.101562 253.179688 256.691406 252.289062 C 258.714844 246.519531 260.378906 241.289062 262.101562 235.34375 C 267.394531 236.175781 272.566406 236.828125 277.5625 237.304688 C 275.894531 243.546875 274.351562 248.484375 272.328125 254.367188 Z M 329.167969 232.785156 C 315.3125 237.664062 296.644531 237.664062 279.226562 235.9375 C 280.773438 230.050781 281.960938 224.640625 283.089844 218.578125 C 287.847656 219.054688 292.425781 219.351562 296.824219 219.527344 C 295.8125 225.710938 294.804688 230.765625 293.316406 236.890625 C 293.613281 236.890625 293.96875 236.890625 294.269531 236.890625 L 294.386719 236.890625 C 295.8125 230.945312 296.882812 225.59375 297.835938 219.527344 C 302.117188 219.648438 306.277344 219.527344 310.203125 219.289062 C 309.367188 225.535156 308.417969 230.585938 307.050781 236.652344 C 307.289062 236.652344 307.585938 236.59375 307.824219 236.59375 C 307.882812 236.59375 307.882812 236.59375 307.941406 236.59375 C 309.25 230.648438 310.203125 225.296875 310.972656 219.230469 C 314.78125 218.933594 318.40625 218.519531 321.792969 217.863281 C 321.082031 224.105469 320.25 229.21875 319 235.34375 C 319.238281 235.285156 319.476562 235.285156 319.65625 235.222656 C 319.65625 235.222656 319.714844 235.222656 319.773438 235.222656 C 321.023438 229.277344 321.855469 223.867188 322.507812 217.746094 C 325.835938 217.089844 328.929688 216.199219 331.722656 215.1875 C 330.890625 221.074219 330.355469 226.960938 329.167969 232.785156 Z M 332.257812 214.832031 C 332.199219 214.832031 332.140625 214.890625 332.082031 214.890625 C 332.199219 214.832031 332.316406 214.832031 332.316406 214.832031 C 332.257812 214.832031 332.257812 214.832031 332.257812 214.832031 Z M 332.851562 196.105469 C 335.527344 195.152344 337.90625 194.023438 340.046875 192.714844 C 340.105469 205.617188 340.105469 205.675781 339.808594 210.3125 L 339.808594 210.371094 C 337.609375 211.621094 335.113281 212.75 332.316406 213.703125 C 332.496094 212.335938 333.089844 205.792969 332.851562 196.105469 Z M 332.851562 196.105469 " fill-opacity="1" fill-rule="nonzero"/></g></svg>