<svg xmlns="http://www.w3.org/2000/svg" xmlns:xlink="http://www.w3.org/1999/xlink" width="40" zoomAndPan="magnify" viewBox="0 0 30 30.000001" height="40" preserveAspectRatio="xMidYMid meet" version="1.0"><defs><clipPath id="91670194fc"><path d="M 2.699219 2.214844 L 27.375 2.214844 L 27.375 26.890625 L 2.699219 26.890625 Z M 2.699219 2.214844 " clip-rule="nonzero"/></clipPath><clipPath id="8145e9ecc4"><path d="M 1.972656 14.515625 C 1.972656 21.710938 7.804688 27.542969 15 27.542969 C 22.195312 27.542969 28.027344 21.710938 28.027344 14.515625 C 28.027344 7.320312 22.195312 1.488281 15 1.488281 C 7.804688 1.488281 1.972656 7.320312 1.972656 14.515625 Z M 1.972656 14.515625 " clip-rule="nonzero"/></clipPath><clipPath id="66d6ebe6f8"><path d="M 15 2.359375 C 21.714844 2.359375 27.15625 7.800781 27.15625 14.515625 C 27.15625 21.230469 21.714844 26.671875 15 26.671875 C 8.285156 26.671875 2.84375 21.230469 2.84375 14.515625 C 2.84375 7.800781 8.285156 2.359375 15 2.359375 Z M 15 2.359375 " clip-rule="nonzero"/></clipPath><clipPath id="598129fffc"><path d="M 1.972656 1.488281 L 28.09375 1.488281 L 28.09375 27.609375 L 1.972656 27.609375 Z M 1.972656 1.488281 " clip-rule="nonzero"/></clipPath><clipPath id="ed2b4b1e8a"><path d="M 1.972656 14.515625 C 1.972656 21.710938 7.804688 27.542969 15 27.542969 C 22.195312 27.542969 28.027344 21.710938 28.027344 14.515625 C 28.027344 7.320312 22.195312 1.488281 15 1.488281 C 7.804688 1.488281 1.972656 7.320312 1.972656 14.515625 Z M 1.972656 14.515625 " clip-rule="nonzero"/></clipPath><clipPath id="543ce2c5de"><path d="M 1.972656 14.511719 C 1.972656 21.707031 7.804688 27.539062 14.996094 27.539062 C 22.191406 27.539062 28.019531 21.707031 28.019531 14.511719 C 28.019531 7.320312 22.191406 1.488281 14.996094 1.488281 C 7.804688 1.488281 1.972656 7.320312 1.972656 14.511719 Z M 1.972656 14.511719 " clip-rule="nonzero"/></clipPath><clipPath id="1219520d48"><path d="M 11 6.757812 L 19 6.757812 L 19 17 L 11 17 Z M 11 6.757812 " clip-rule="nonzero"/></clipPath><clipPath id="6cf309a0e7"><path d="M 11 12 L 20 12 L 20 21.996094 L 11 21.996094 Z M 11 12 " clip-rule="nonzero"/></clipPath><clipPath id="c52d902ddd"><path d="M 8.472656 7.828125 L 21.535156 7.828125 L 21.535156 21.199219 L 8.472656 21.199219 Z M 8.472656 7.828125 " clip-rule="nonzero"/></clipPath></defs><g clip-path="url(#91670194fc)"><g clip-path="url(#8145e9ecc4)"><g clip-path="url(#66d6ebe6f8)"><path fill="#00060e" d="M 14.996094 27.539062 C 7.816406 27.539062 1.972656 21.691406 1.972656 14.511719 C 1.972656 7.332031 7.816406 1.488281 14.996094 1.488281 C 22.175781 1.488281 28.019531 7.332031 28.019531 14.511719 C 28.019531 21.691406 22.175781 27.539062 14.996094 27.539062 Z M 14.996094 1.679688 C 7.917969 1.679688 2.164062 7.4375 2.164062 14.511719 C 2.164062 21.589844 7.917969 27.34375 14.996094 27.34375 C 22.074219 27.34375 27.828125 21.589844 27.828125 14.511719 C 27.828125 7.4375 22.074219 1.679688 14.996094 1.679688 Z M 14.996094 1.679688 " fill-opacity="1" fill-rule="nonzero"/></g></g></g><g clip-path="url(#598129fffc)"><g clip-path="url(#ed2b4b1e8a)"><g clip-path="url(#543ce2c5de)"><path stroke-linecap="butt" transform="matrix(0.725806, 0, 0, 0.725806, 1.971774, 1.487905)" fill="none" stroke-linejoin="miter" d="M 0.00121596 17.94392 C 0.00121596 27.857461 8.036459 35.892704 17.944618 35.892704 C 27.858159 35.892704 35.88802 27.857461 35.88802 17.94392 C 35.88802 8.035761 27.858159 0.000518184 17.944618 0.000518184 C 8.036459 0.000518184 0.00121596 8.035761 0.00121596 17.94392 Z M 0.00121596 17.94392 " stroke="#bb0909" stroke-width="2" stroke-opacity="1" stroke-miterlimit="4"/></g></g></g><g clip-path="url(#1219520d48)"><path fill="#bb0909" d="M 18.027344 10.25 L 18.027344 9.792969 C 18.027344 8.136719 16.667969 6.773438 15.007812 6.773438 C 13.347656 6.773438 11.984375 8.136719 11.984375 9.792969 L 11.984375 14.933594 C 11.984375 15.335938 12.070312 15.71875 12.210938 16.066406 L 18.027344 10.25 " fill-opacity="1" fill-rule="nonzero"/></g><path fill="#bb0909" d="M 18.027344 14.914062 L 18.027344 12.730469 L 13.3125 17.449219 C 13.800781 17.78125 14.378906 17.972656 15.007812 17.972656 C 16.664062 17.953125 18.027344 16.59375 18.027344 14.914062 " fill-opacity="1" fill-rule="nonzero"/><path fill="#bb0909" d="M 11.546875 16.730469 C 11.265625 16.191406 11.109375 15.578125 11.109375 14.933594 L 11.109375 12.871094 C 11.109375 12.574219 10.882812 12.34375 10.585938 12.34375 C 10.289062 12.34375 10.0625 12.574219 10.0625 12.871094 L 10.0625 14.933594 C 10.0625 15.875 10.324219 16.75 10.777344 17.5 L 11.546875 16.730469 " fill-opacity="1" fill-rule="nonzero"/><g clip-path="url(#6cf309a0e7)"><path fill="#bb0909" d="M 19.425781 12.34375 C 19.128906 12.34375 18.902344 12.574219 18.902344 12.871094 L 18.902344 14.933594 C 18.902344 17.082031 17.15625 18.828125 15.007812 18.828125 C 14.132812 18.828125 13.347656 18.550781 12.683594 18.058594 L 11.929688 18.8125 C 12.648438 19.371094 13.519531 19.753906 14.464844 19.839844 L 14.464844 21.203125 L 12.820312 21.203125 C 12.523438 21.203125 12.296875 21.433594 12.296875 21.730469 C 12.296875 22.027344 12.523438 22.253906 12.820312 22.253906 L 17.15625 22.253906 C 17.453125 22.253906 17.679688 22.027344 17.679688 21.730469 C 17.679688 21.433594 17.453125 21.203125 17.15625 21.203125 L 15.53125 21.203125 L 15.53125 19.839844 C 18.011719 19.582031 19.953125 17.484375 19.953125 14.933594 L 19.953125 12.871094 C 19.953125 12.574219 19.722656 12.34375 19.425781 12.34375 " fill-opacity="1" fill-rule="nonzero"/></g><g clip-path="url(#c52d902ddd)"><path fill="#bb0909" d="M 21.382812 8.136719 C 21.175781 7.925781 20.84375 7.925781 20.648438 8.136719 L 8.628906 20.15625 C 8.417969 20.367188 8.417969 20.699219 8.628906 20.890625 C 8.734375 20.996094 8.875 21.046875 8.996094 21.046875 C 9.117188 21.046875 9.257812 20.996094 9.363281 20.890625 L 21.382812 8.871094 C 21.59375 8.660156 21.59375 8.34375 21.382812 8.136719 " fill-opacity="1" fill-rule="nonzero"/></g></svg>