<svg xmlns="http://www.w3.org/2000/svg" xmlns:xlink="http://www.w3.org/1999/xlink" width="40" zoomAndPan="magnify" viewBox="0 0 30 30.000001" height="40" preserveAspectRatio="xMidYMid meet" version="1.0"><defs><clipPath id="8095fd3df9"><path d="M 1.238281 0.753906 L 28.816406 0.753906 L 28.816406 28.332031 L 1.238281 28.332031 Z M 1.238281 0.753906 " clip-rule="nonzero"/></clipPath><clipPath id="55519d5fb5"><path d="M 11 5.566406 L 19 5.566406 L 19 18 L 11 18 Z M 11 5.566406 " clip-rule="nonzero"/></clipPath><clipPath id="f4f0a51f37"><path d="M 8.8125 12 L 21.152344 12 L 21.152344 23.710938 L 8.8125 23.710938 Z M 8.8125 12 " clip-rule="nonzero"/></clipPath></defs><g clip-path="url(#8095fd3df9)"><path fill="#ffffff" d="M 15 28.277344 C 7.414062 28.277344 1.238281 22.101562 1.238281 14.515625 C 1.238281 6.929688 7.414062 0.753906 15 0.753906 C 22.585938 0.753906 28.761719 6.929688 28.761719 14.515625 C 28.761719 22.101562 22.585938 28.277344 15 28.277344 Z M 15 0.957031 C 7.519531 0.957031 1.441406 7.035156 1.441406 14.515625 C 1.441406 21.992188 7.519531 28.074219 15 28.074219 C 22.476562 28.074219 28.558594 21.992188 28.558594 14.515625 C 28.558594 7.035156 22.476562 0.957031 15 0.957031 Z M 15 0.957031 " fill-opacity="1" fill-rule="nonzero"/></g><g clip-path="url(#55519d5fb5)"><path fill="#ffffff" d="M 18.324219 11.9375 C 18.324219 12.855469 18.339844 13.769531 18.324219 14.683594 C 18.296875 15.113281 18.191406 15.523438 18.007812 15.914062 C 17.820312 16.300781 17.574219 16.644531 17.257812 16.9375 C 16.941406 17.234375 16.585938 17.460938 16.183594 17.617188 C 15.785156 17.777344 15.367188 17.855469 14.9375 17.855469 C 14.507812 17.855469 14.089844 17.777344 13.6875 17.617188 C 13.289062 17.460938 12.929688 17.234375 12.617188 16.9375 C 12.300781 16.644531 12.050781 16.300781 11.867188 15.914062 C 11.683594 15.523438 11.578125 15.113281 11.546875 14.683594 C 11.53125 12.84375 11.53125 11 11.546875 9.148438 C 11.558594 8.792969 11.621094 8.441406 11.742188 8.105469 C 11.859375 7.765625 12.027344 7.457031 12.246094 7.171875 C 12.464844 6.886719 12.722656 6.644531 13.015625 6.441406 C 13.3125 6.238281 13.628906 6.082031 13.972656 5.980469 C 14.316406 5.878906 14.667969 5.832031 15.027344 5.839844 C 15.386719 5.851562 15.734375 5.914062 16.070312 6.03125 C 16.410156 6.152344 16.71875 6.320312 17.003906 6.539062 C 17.289062 6.753906 17.535156 7.011719 17.738281 7.308594 C 18.132812 7.871094 18.328125 8.5 18.328125 9.1875 C 18.328125 10.109375 18.324219 11.023438 18.324219 11.9375 Z M 18.324219 11.9375 " fill-opacity="1" fill-rule="nonzero"/></g><g clip-path="url(#f4f0a51f37)"><path fill="#ffffff" d="M 15.636719 20.695312 L 15.636719 22.03125 C 15.746094 22.046875 15.859375 22.0625 15.972656 22.066406 C 16.65625 22.066406 17.335938 22.066406 18.019531 22.066406 C 18.164062 22.0625 18.304688 22.074219 18.445312 22.101562 C 18.613281 22.128906 18.753906 22.210938 18.863281 22.34375 C 18.96875 22.480469 19.019531 22.632812 19.011719 22.804688 C 18.996094 22.972656 18.929688 23.117188 18.808594 23.238281 C 18.6875 23.355469 18.542969 23.425781 18.375 23.441406 C 18.273438 23.445312 18.171875 23.445312 18.070312 23.441406 C 15.984375 23.441406 13.894531 23.441406 11.792969 23.441406 C 11.679688 23.449219 11.5625 23.449219 11.445312 23.441406 C 11.289062 23.410156 11.15625 23.339844 11.050781 23.21875 C 10.941406 23.101562 10.882812 22.964844 10.867188 22.804688 C 10.859375 22.636719 10.90625 22.488281 11.007812 22.355469 C 11.109375 22.222656 11.242188 22.140625 11.402344 22.105469 C 11.542969 22.074219 11.683594 22.0625 11.828125 22.066406 C 12.464844 22.066406 13.101562 22.066406 13.738281 22.066406 L 14.195312 22.066406 L 14.195312 20.71875 C 13.808594 20.621094 13.421875 20.554688 13.054688 20.429688 C 10.894531 19.679688 9.535156 18.171875 8.976562 15.945312 C 8.902344 15.648438 8.863281 15.347656 8.855469 15.042969 C 8.832031 14.460938 8.832031 13.878906 8.839844 13.296875 C 8.839844 13.109375 8.902344 12.949219 9.03125 12.816406 C 9.160156 12.683594 9.320312 12.613281 9.503906 12.613281 C 9.691406 12.609375 9.851562 12.671875 9.984375 12.800781 C 10.121094 12.933594 10.1875 13.089844 10.191406 13.277344 C 10.214844 13.769531 10.191406 14.261719 10.207031 14.761719 C 10.25 16.542969 11.105469 17.847656 12.597656 18.757812 C 13.054688 19.019531 13.542969 19.199219 14.0625 19.296875 C 14.582031 19.394531 15.101562 19.40625 15.621094 19.328125 C 16.144531 19.25 16.636719 19.089844 17.105469 18.847656 C 17.574219 18.605469 17.988281 18.292969 18.351562 17.910156 C 19.222656 17.027344 19.660156 15.964844 19.664062 14.722656 C 19.664062 14.320312 19.664062 13.910156 19.664062 13.503906 C 19.660156 13.386719 19.667969 13.273438 19.6875 13.15625 C 19.71875 12.996094 19.800781 12.863281 19.929688 12.757812 C 20.058594 12.65625 20.207031 12.609375 20.371094 12.613281 C 20.539062 12.613281 20.6875 12.671875 20.808594 12.785156 C 20.929688 12.898438 21 13.039062 21.007812 13.207031 C 21.175781 15.453125 20.820312 17.527344 19.042969 19.136719 C 18.140625 19.964844 17.082031 20.472656 15.871094 20.65625 C 15.808594 20.660156 15.742188 20.679688 15.636719 20.695312 Z M 15.636719 20.695312 " fill-opacity="1" fill-rule="nonzero"/></g></svg>