<svg xmlns="http://www.w3.org/2000/svg" xmlns:xlink="http://www.w3.org/1999/xlink" width="40" zoomAndPan="magnify" viewBox="0 0 30 30.000001" height="40" preserveAspectRatio="xMidYMid meet" version="1.0"><defs><clipPath id="271e878f54"><path d="M 1.238281 0.753906 L 28.816406 0.753906 L 28.816406 28.332031 L 1.238281 28.332031 Z M 1.238281 0.753906 " clip-rule="nonzero"/></clipPath><clipPath id="4b9e375bfb"><path d="M 5.757812 8.972656 L 23.902344 8.972656 L 23.902344 19.859375 L 5.757812 19.859375 Z M 5.757812 8.972656 " clip-rule="nonzero"/></clipPath></defs><g clip-path="url(#271e878f54)"><path fill="#ffffff" d="M 15 28.277344 C 7.414062 28.277344 1.238281 22.101562 1.238281 14.515625 C 1.238281 6.929688 7.414062 0.753906 15 0.753906 C 22.585938 0.753906 28.761719 6.929688 28.761719 14.515625 C 28.761719 22.101562 22.585938 28.277344 15 28.277344 Z M 15 0.957031 C 7.519531 0.957031 1.441406 7.035156 1.441406 14.515625 C 1.441406 21.992188 7.519531 28.074219 15 28.074219 C 22.476562 28.074219 28.558594 21.992188 28.558594 14.515625 C 28.558594 7.035156 22.476562 0.957031 15 0.957031 Z M 15 0.957031 " fill-opacity="1" fill-rule="nonzero"/></g><g clip-path="url(#4b9e375bfb)"><path fill="#01af27" d="M 6.992188 8.972656 C 6.3125 8.972656 5.761719 9.523438 5.761719 10.203125 L 5.761719 18.820312 C 5.761719 19.5 6.3125 20.050781 6.992188 20.050781 L 17.457031 20.050781 C 18.136719 20.050781 18.6875 19.5 18.6875 18.820312 L 18.6875 10.203125 C 18.6875 9.523438 18.136719 8.972656 17.457031 8.972656 Z M 23.613281 10.203125 C 23.445312 10.203125 23.304688 10.261719 23.183594 10.375 L 19.917969 13.28125 L 19.917969 15.742188 L 23.195312 18.65625 L 23.207031 18.664062 C 23.324219 18.769531 23.457031 18.820312 23.613281 18.820312 C 23.78125 18.820312 23.929688 18.757812 24.046875 18.640625 C 24.167969 18.519531 24.226562 18.375 24.226562 18.203125 L 24.226562 10.816406 C 24.226562 10.648438 24.167969 10.503906 24.046875 10.382812 C 23.929688 10.261719 23.78125 10.203125 23.613281 10.203125 Z M 23.613281 10.203125 " fill-opacity="1" fill-rule="nonzero"/></g></svg>