<svg xmlns="http://www.w3.org/2000/svg" xmlns:xlink="http://www.w3.org/1999/xlink" width="40" zoomAndPan="magnify" viewBox="0 0 30 30.000001" height="40" preserveAspectRatio="xMidYMid meet" version="1.0"><defs><clipPath id="e999aacc52"><path d="M 1.972656 1.488281 L 28.101562 1.488281 L 28.101562 27.617188 L 1.972656 27.617188 Z M 1.972656 1.488281 " clip-rule="nonzero"/></clipPath></defs><path fill="#bb0909" d="M 22.519531 18.117188 L 19.742188 16.636719 C 19.5625 16.539062 19.445312 16.347656 19.445312 16.140625 L 19.445312 12.882812 C 19.445312 12.675781 19.5625 12.488281 19.742188 12.390625 L 22.519531 10.90625 C 22.894531 10.707031 23.347656 10.980469 23.347656 11.402344 L 23.347656 17.621094 C 23.347656 18.046875 22.894531 18.316406 22.519531 18.117188 " fill-opacity="1" fill-rule="nonzero"/><g clip-path="url(#e999aacc52)"><path fill="#bb0909" d="M 14.996094 2.601562 C 8.429688 2.601562 3.085938 7.945312 3.085938 14.511719 C 3.085938 21.082031 8.429688 26.425781 14.996094 26.425781 C 21.566406 26.425781 26.90625 21.082031 26.90625 14.511719 C 26.90625 7.945312 21.566406 2.601562 14.996094 2.601562 Z M 14.996094 27.539062 C 13.238281 27.539062 11.53125 27.191406 9.925781 26.515625 C 8.375 25.859375 6.984375 24.917969 5.785156 23.722656 C 4.589844 22.527344 3.652344 21.132812 2.996094 19.582031 C 2.316406 17.976562 1.972656 16.269531 1.972656 14.511719 C 1.972656 12.753906 2.316406 11.050781 2.996094 9.441406 C 3.652344 7.890625 4.589844 6.5 5.785156 5.304688 C 6.984375 4.105469 8.375 3.167969 9.925781 2.511719 C 11.53125 1.832031 13.238281 1.488281 14.996094 1.488281 C 16.753906 1.488281 18.460938 1.832031 20.066406 2.511719 C 21.617188 3.167969 23.011719 4.105469 24.207031 5.304688 C 25.402344 6.5 26.339844 7.890625 26.996094 9.441406 C 27.675781 11.050781 28.019531 12.753906 28.019531 14.511719 C 28.019531 16.269531 27.675781 17.976562 26.996094 19.582031 C 26.339844 21.132812 25.402344 22.527344 24.207031 23.722656 C 23.011719 24.917969 21.617188 25.859375 20.066406 26.515625 C 18.460938 27.191406 16.753906 27.539062 14.996094 27.539062 " fill-opacity="1" fill-rule="nonzero"/></g><path fill="#bb0909" d="M 18.554688 10.699219 C 18.554688 10.132812 18.09375 9.671875 17.527344 9.671875 L 11.003906 9.671875 L 18.554688 17.222656 L 18.554688 10.699219 " fill-opacity="1" fill-rule="nonzero"/><path fill="#bb0909" d="M 20.027344 20.117188 L 18.511719 18.601562 C 18.515625 18.601562 18.515625 18.597656 18.515625 18.597656 L 9.628906 9.710938 C 9.625 9.710938 9.625 9.710938 9.621094 9.710938 L 8.109375 8.199219 L 7.398438 8.910156 L 8.914062 10.421875 C 8.886719 10.507812 8.875 10.601562 8.875 10.699219 L 8.875 18.328125 C 8.875 18.894531 9.332031 19.351562 9.898438 19.351562 L 17.527344 19.351562 C 17.625 19.351562 17.714844 19.339844 17.804688 19.3125 L 19.316406 20.828125 L 20.027344 20.117188 " fill-opacity="1" fill-rule="nonzero"/></svg>